<?xml version="1.0" standalone="no"?>
<!DOCTYPE svg PUBLIC "-//W3C//DTD SVG 1.1//EN" "http://www.w3.org/Graphics/SVG/1.1/DTD/svg11.dtd" >
<svg xmlns="http://www.w3.org/2000/svg" xmlns:xlink="http://www.w3.org/1999/xlink" version="1.1">
<metadata></metadata>
<defs>
<font id="blackregular" horiz-adv-x="983" >
<font-face units-per-em="2048" ascent="1638" descent="-410" />
<missing-glyph horiz-adv-x="511" />
<glyph unicode="&#xd;" horiz-adv-x="511" />
<glyph unicode=" "  horiz-adv-x="511" />
<glyph unicode="&#x09;" horiz-adv-x="511" />
<glyph unicode="&#xa0;" horiz-adv-x="511" />
<glyph unicode="!" horiz-adv-x="747" d="M118 -172q26 34 101.5 111t96.5 77q11 0 67 -52t113 -84q-15 -23 -94 -106.5t-102 -83.5q-15 0 -61.5 48.5t-120.5 89.5zM211 528v35t2 38q0 198 80.5 354t188 254t195.5 139q-67 -102 -127 -374.5t-98.5 -404.5t-169.5 -346q-44 125 -57.5 187.5t-13.5 117.5z" />
<glyph unicode="&#x22;" horiz-adv-x="661" d="M8 1134l154 154q103 -79 103 -205q0 -80 -51.5 -141t-110.5 -100q13 23 28 49.5t15 53.5q0 79 -138 189zM351 1134l154 154q52 -41 77.5 -92t25.5 -113q0 -64 -43.5 -128t-120.5 -113q15 25 29.5 49.5t14.5 53.5q0 52 -36 95t-101 94z" />
<glyph unicode="#" horiz-adv-x="910" d="M102 606l49 66h106l89 177h-133l49 65h116l68 135h65l-67 -135h144l67 135h66l-67 -135h116l-49 -65h-100l-89 -177h127l-50 -66h-109l-61 -121h-65l60 121h-144l-61 -121h-65l60 121h-122zM323 672h144l88 177h-144z" />
<glyph unicode="$" horiz-adv-x="675" d="M8 244v171q80 -133 141.5 -194.5t166.5 -61.5q77 0 107.5 51t30.5 119q0 121 -115 182q-108 46 -214 92q-116 67 -117 205q0 152 86 196.5t175 60.5v133l69 1v-134q87 8 144 -33.5t57 -154.5q0 38 -46 78.5t-124 40.5q-79 0 -143 -29.5t-64 -106.5q0 -100 110.5 -147.5 t219.5 -91.5q116 -75 116 -241q0 -184 -89 -226t-181 -49v-141l-69 2v137q-5 -2 -16 -3.5t-17 -1.5q-51 0 -110 30.5t-118 115.5z" />
<glyph unicode="%" horiz-adv-x="1002" d="M75 618q0 88 59.5 138t147.5 50q100 0 144 -58t44 -147q0 -103 -59.5 -146.5t-145.5 -43.5q-102 0 -146 62.5t-44 144.5zM77 15l708 714q-36 59 -103 85h170q25 -13 49 -24q18 -15 38 -45l-706 -714q26 -46 37.5 -53t81.5 -32h-85h-41t-38 -2q-44 0 -61 11t-50 60z M179 618q0 -59 15.5 -98.5t70.5 -39.5q59 0 81.5 27t22.5 94q0 64 -14 100t-73 36q-61 0 -82 -26t-21 -93zM557 138q0 100 64.5 144t141.5 44q88 0 138.5 -60.5t50.5 -145.5q0 -100 -63 -144.5t-144 -44.5q-100 0 -144 62.5t-44 144.5zM660 138q0 -64 14 -101t71 -37 q61 0 82.5 26t21.5 94q0 69 -14 103t-72 34q-61 0 -82 -26t-21 -93z" />
<glyph unicode="&#x26;" horiz-adv-x="1330" d="M75 138q0 134 37 210t103.5 168t66.5 136q-46 41 -92 110.5t-46 215.5q0 138 88 258.5t222 120.5q92 0 157.5 -72.5t65.5 -168.5q0 -90 -59 -167t-217 -228q57 -70 210.5 -209.5t298.5 -256.5t162 -117q34 25 68.5 73t34.5 167q0 197 -169 297q-131 66 -261 131 q274 0 377.5 -105t103.5 -323q0 -108 -28 -176t-58 -115q21 -28 64.5 -76.5t133 -111.5t214.5 -105h-86q-131 0 -237 42q-88 48 -176 95q-43 -80 -163 -142.5t-333 -62.5q-239 0 -360.5 118t-121.5 294zM265 344q0 -205 111 -309t319 -104h44q79 0 119.5 17.5t93.5 85.5 l-618 533q-26 -44 -47.5 -107.5t-21.5 -115.5zM282 1081q0 -80 28 -153.5t83 -137.5q61 48 103.5 118t42.5 139q0 80 -28 126t-110 46q-49 0 -84 -29.5t-35 -108.5z" />
<glyph unicode="'" horiz-adv-x="255" d="M-25 1203l154 154q52 -43 78 -95.5t26 -109.5q0 -52 -32 -114.5t-131 -124.5q21 39 32 60.5t11 40.5q0 52 -36 95t-102 94z" />
<glyph unicode="(" horiz-adv-x="471" d="M75 156v358q0 110 82 266t236 285q-51 -100 -100 -198q-46 -117 -46 -197v-670q0 -41 29 -147.5t109 -237.5q-106 84 -208 235.5t-102 305.5z" />
<glyph unicode=")" horiz-adv-x="478" d="M84 1081q98 -115 196 -229q121 -168 121 -338v-358q0 -195 -168 -398q-105 -113 -140 -153q54 113 96 209t42 186v670q0 97 -64.5 233t-82.5 178z" />
<glyph unicode="*" horiz-adv-x="1173" d="M75 852q67 34 88 47.5t21 19.5q-2 5 -2 13t47 40q0 -18 -0.5 -33t-0.5 -28q0 -23 6.5 -28t37.5 -5h61q69 0 83 21q20 34 36 64q-16 16 -43 43.5t-39 27.5q-25 -3 -55 -3q0 69 -7 86.5t-28 17.5q-26 -3 -46 -3q-13 0 -21 2v85h85q10 -85 15.5 -93.5t87.5 -8.5v-52 q0 -28 19 -44.5t49 -40.5q61 33 73.5 40t12.5 27q0 16 -0.5 34t-0.5 36q0 61 -26 79q-44 16 -76 33q46 20 92 41q21 58 36 87q23 -49 48 -97q23 -5 80 -31q-38 -20 -70.5 -31.5t-32.5 -34.5v-28.5t1 -35.5q0 -69 22 -83q34 -20 63 -36q48 48 59.5 59t11.5 24q0 7 -1.5 25 t-1.5 29q64 0 84 9t20 31q-3 26 -3 44q2 11 2 18h85v-85q-43 -7 -84 -12q-18 -11 -18 -91h-29t-23 1q-16 0 -36.5 -20.5l-48.5 -48.5q18 -36 32.5 -61t34.5 -25q34 2 70 1q77 0 84 13q3 39 26 89q21 -41 28 -63t12 -36q20 0 34.5 -4.5t55.5 -24.5q-88 -43 -95 -58.5 t-35 -69.5q-20 39 -25.5 71t-28.5 32q-15 0 -33 -0.5t-41 -0.5q-70 0 -80 -10q-13 -33 -39 -75q28 -29 48.5 -50t34.5 -21q7 0 25 1.5t29 1.5q0 -87 14 -95q39 -2 88 -8v-85h-85q-2 10 -2 20.5v15.5v28q0 23 -17 30.5t-84 7.5q2 36 1 45q0 21 -18.5 40t-50.5 52 q-36 -20 -61 -34.5t-25 -35.5v-33.5t1 -33.5q0 -57 13 -69t89 -41q-46 -23 -92 -44q-5 -25 -36 -86q-43 84 -49 90q-28 13 -79 40q74 28 88 33.5t14 40.5v54v27q0 38 -11.5 46t-73.5 46q-26 -28 -47.5 -49t-21.5 -36v-23t1 -29q-87 0 -95 -14q-2 -39 -8 -88h-85v85h43 q38 0 48.5 26.5t10.5 76.5h39q44 0 59 19t39 49q-33 61 -40 73.5t-27 12.5q-18 0 -35 -0.5t-35 -0.5q-61 0 -79 -26q-16 -44 -33 -76q-18 43 -36 87q-23 7 -92 41zM452 860q0 -56 21.5 -96t98.5 -40q72 0 104 24.5t32 95.5q0 64 -27 100t-93 36q-61 0 -98.5 -24t-37.5 -96z " />
<glyph unicode="+" horiz-adv-x="1153" d="M136 518q0 15 11 26q13 10 28 10t25.5 -12.5t10.5 -27.5q0 -16 -10.5 -26t-28.5 -10q-16 0 -26 11t-10 29zM203 336q13 31 46 92.5t33 85.5q0 13 -31 79.5t-36 91.5q84 -26 102.5 -89.5t119.5 -63.5q88 0 104 17.5t16 102.5q0 95 -62 120.5t-84 122.5q44 -41 81.5 -58.5 t89.5 -17.5q20 0 73.5 20.5t96.5 37.5q-28 -70 -86 -99t-58 -126q0 -90 16.5 -105t104.5 -15q87 0 109 64t107 92q-25 -61 -43.5 -108.5t-18.5 -81.5q0 -21 33 -89t36 -75q-84 31 -108.5 88.5t-114.5 57.5q-92 0 -106.5 -17t-14.5 -103q0 -88 61.5 -108.5t72.5 -100.5 q-28 10 -81 32.5t-88 22.5q-20 0 -69 -18t-93 -41q0 62 73 99t73 114q0 90 -16.5 105t-103.5 15q-90 0 -110.5 -54t-123.5 -90zM532 105q1 15 12 26q13 10 28 10t25.5 -12.5t10.5 -26.5q0 -16 -10.5 -26t-28.5 -10q-16 0 -26.5 10.5t-10.5 28.5zM542 510q0 -17 10 -27 q10 -11 28 -11q16 0 27 10t11 28q0 16 -10 26.5t-28 10.5q-16 0 -27 -9.5t-11 -27.5zM542 924q1 15 12 26q13 10 28 10t25.5 -12t10.5 -27q0 -16 -11 -26t-29 -10q-16 0 -26 10.5t-10 28.5zM945 514q1 16 12 27q13 10 28 10t25.5 -12.5t10.5 -27.5q0 -16 -11 -26t-29 -10 q-16 0 -26 10.5t-10 28.5z" />
<glyph unicode="," horiz-adv-x="491" d="M93 49l154 154q52 -43 78 -95t26 -110q0 -52 -32 -114.5t-131 -124.5q21 38 32 60t11 42q0 52 -36 94.5t-102 93.5z" />
<glyph unicode="-" horiz-adv-x="1199" d="M162 360q51 157 179 196t358 46t312 50q-79 -165 -205 -201t-341 -38t-303 -53z" />
<glyph unicode="." horiz-adv-x="491" d="M72 18q16 29 80 101.5t92 77.5q33 0 92.5 -50t94.5 -104l-170 -171q-54 54 -90.5 81t-98.5 65z" />
<glyph unicode="/" horiz-adv-x="1002" d="M77 -210l693 1558h102l-692 -1558h-103z" />
<glyph unicode="0" d="M92 621q0 244 102.5 421t308.5 177q170 0 281.5 -202.5t111.5 -498.5q0 -239 -106.5 -409.5t-304.5 -170.5q-195 0 -294 209t-99 474zM211 775q0 -251 76.5 -408t167.5 -225t133 -68q88 0 138.5 73.5t50.5 250.5q0 256 -80.5 407.5t-173 214.5t-123.5 63 q-90 0 -139.5 -79.5t-49.5 -228.5z" />
<glyph unicode="1" horiz-adv-x="819" d="M180 1026q77 98 130.5 145.5t102.5 47.5h103v-1232l51 -51h-290l51 51v1085q-26 0 -60 -5t-88 -41z" />
<glyph unicode="2" d="M75 878q0 164 116.5 252.5t293.5 88.5q185 0 289 -104t104 -271q0 -154 -118 -271q-128 -102 -275 -218t-221 -270q80 0 249 -11.5t239 -11.5q92 0 143 13q-43 -64 -95.5 -100t-109.5 -36h-580q0 129 144 265.5t285 268.5q151 177 151 389q0 149 -69 227.5t-187 78.5 q-106 0 -180.5 -97.5t-74.5 -243.5q0 -72 11.5 -113t47.5 -144q-90 46 -126.5 132t-36.5 176z" />
<glyph unicode="3" d="M108 231q66 -90 133 -179q85 -70 195 -70q136 0 179.5 85t43.5 225q0 156 -70.5 241t-187.5 85q-21 0 -84 -24t-79 -29q57 70 197 206.5t189 241.5h-326q-51 -7 -92 -28.5t-63 -32.5q34 106 99.5 161t193.5 106h395q-33 -113 -92 -182.5t-176 -187t-145 -181.5 q208 0 318.5 -99t110.5 -261q0 -138 -118 -257.5t-311 -119.5q-185 0 -247.5 74t-62.5 226z" />
<glyph unicode="4" d="M75 210v18l497 991h170v-957h138v-52h-138v-221l53 -51h-292l52 51v221h-480zM179 279h358v717l-358 -699v-18z" />
<glyph unicode="5" d="M43 369q88 -120 177 -238q143 -149 321 -149q118 0 154 65.5t36 226.5q0 224 -101.5 318t-242.5 94q-85 0 -168 -47.5t-108 -55.5l225 636q54 0 107 -1t106 -1q98 0 167 6t134 22q-92 -128 -176 -173.5t-168 -45.5q-29 0 -76.5 6.5t-64.5 6.5q-31 0 -47.5 -9t-60 -141.5 t-59.5 -202.5q105 20 126.5 35.5t130.5 15.5q185 0 324.5 -122.5t139.5 -288.5q0 -184 -136.5 -289.5t-327.5 -105.5q-236 0 -324 116.5t-88 321.5z" />
<glyph unicode="6" d="M49 406v31t2 27q0 324 150.5 574t432.5 250q-172 -87 -261.5 -219t-116.5 -253t-27 -207v-15.5t2 -10.5q41 33 109 65t201 32q188 0 291.5 -105t103.5 -267q0 -180 -120.5 -278.5t-309.5 -98.5q-280 0 -368.5 146.5t-88.5 328.5zM249 377q0 -93 85 -235t241 -142 q74 0 123 50t49 156q0 156 -65.5 275.5t-193.5 119.5q-93 0 -166 -63.5t-73 -160.5z" />
<glyph unicode="7" d="M-41 939q39 121 128.5 200.5t179.5 79.5h631q28 0 61.5 17t66.5 35q-92 -210 -252 -360.5t-296 -278.5q-126 -146 -126 -334q0 -88 44.5 -158.5t150.5 -131.5q-51 -62 -86 -99t-58 -37q-67 0 -153 124t-86 251q0 138 87 253.5t259.5 280t233.5 251.5h-597 q-29 0 -74 -20.5t-114 -72.5z" />
<glyph unicode="8" d="M108 223q0 152 55 235.5t170 141.5q-79 75 -117.5 150.5t-38.5 193.5q0 175 88.5 225t204.5 50q152 0 213 -78t61 -181q0 -98 -42.5 -140t-177.5 -145q11 0 96.5 -58t156 -149t70.5 -211q0 -156 -122 -241t-307 -85q-172 0 -241 67.5t-69 224.5zM246 326 q0 -157 91.5 -241.5t167.5 -84.5q64 0 100 37.5t36 132.5q0 164 -80.5 254t-198.5 148q-64 -34 -90 -90t-26 -156zM280 1029q0 -105 60 -194.5t147 -131.5q77 59 98 84.5t21 121.5q0 108 -59 174.5t-146 66.5q-64 0 -92.5 -20.5t-28.5 -100.5z" />
<glyph unicode="9" d="M92 809q0 169 137.5 289.5t289.5 120.5q224 0 300.5 -135t76.5 -360q0 -252 -117 -445.5t-268 -309.5t-257 -153q323 292 388.5 419t65.5 368q0 252 -77 374t-248 122q-95 0 -133.5 -40t-38.5 -114q0 -62 38.5 -164.5t130.5 -205.5t243 -159h-86q-211 0 -328 95t-117 298 z" />
<glyph unicode=":" horiz-adv-x="491" d="M82 34q62 64 106.5 109t65.5 45q20 0 87 -67t67 -87q0 -23 -50 -73.5t-130 -96.5q-36 61 -79.5 104t-66.5 66zM82 514q103 106 127.5 131t44.5 25t87 -69t67 -87q0 -16 -57.5 -75t-122.5 -95q-44 72 -90 120q-44 39 -56 50z" />
<glyph unicode=";" horiz-adv-x="491" d="M105 34l156 154q59 -48 81 -94t22 -110q0 -70 -51.5 -140t-112.5 -101q13 26 27.5 53t14.5 50q0 38 -39 89.5t-98 98.5zM105 514q103 106 127.5 131t44.5 25t87 -69t67 -87q0 -16 -57.5 -75t-122.5 -95q-44 72 -90 120q-44 39 -56 50z" />
<glyph unicode="&#x3c;" horiz-adv-x="871" d="M195 500v18l326 324h138l-310 -324v-18l310 -308h-138z" />
<glyph unicode="=" horiz-adv-x="851" d="M84 277q36 72 93 113t121 41h429q-54 -54 -99 -87t-107 -33q-61 0 -136 8.5t-103 8.5q-44 0 -89.5 -11t-108.5 -40zM84 551q31 61 88 107.5t126 46.5h429q-62 -62 -108 -91t-98 -29q-144 0 -210.5 1.5t-120.5 3.5q-36 0 -55 -11.5t-51 -27.5z" />
<glyph unicode="&#x3e;" horiz-adv-x="747" d="M126 842h154l326 -324v-18l-326 -325h-136l308 325v18z" />
<glyph unicode="?" horiz-adv-x="1459" d="M92 827q0 213 154.5 371.5t544.5 158.5q582 0 582 -495q0 -224 -115.5 -349t-359 -323t-243.5 -301q0 -41 50 -72.5t139 -31.5q93 0 146.5 53.5t53.5 130.5q0 41 -18 85q33 -11 37 -54.5t7 -68.5q0 -123 -63 -194t-283 -71q-133 0 -194 40t-61 148q0 136 178.5 263 t351.5 248q185 169 186 394q0 242 -185.5 390.5t-394.5 148.5q-179 0 -286.5 -119t-107.5 -301q0 -141 74 -256.5t234 -203.5h-119q-179 79 -243.5 169t-64.5 240zM554 -539q0 57 67 88.5t154 31.5q85 0 145 -30.5t60 -105.5q0 -59 -66.5 -89.5t-154.5 -30.5q-115 0 -160 40 t-45 96z" />
<glyph unicode="@" horiz-adv-x="1530" d="M144 367q0 95 20.5 175.5t87.5 200.5t218 202q146 88 326 89q224 0 410.5 -142t186.5 -386q0 -72 -13.5 -133.5t-44.5 -116.5q-56 -115 -162 -186.5t-193 -71.5q-26 0 -49 8.5t-52.5 35.5t-39.5 104q-28 -38 -54 -64t-51 -44q-34 -16 -55.5 -23t-52.5 -7q-97 0 -170 76.5 t-73 192.5q0 108 54.5 203t147.5 154t188 59q62 0 102.5 -30.5t60.5 -97.5l29 113h128l-133 -499q-11 -34 -11 -68q0 -26 16 -40t36 -14q59 0 117 44.5t88.5 83t56.5 95t40 114t14 112.5q0 179 -150.5 315.5t-365.5 136.5q-164 0 -294 -76t-207 -212t-77 -300 q0 -162 77 -291q69 -128 212 -206.5t310 -78.5q52 0 96.5 7t84.5 24q85 29 159 93.5t136 161.5h93q-31 -52 -59 -92t-63 -76.5t-88.5 -75t-140 -78.5t-224.5 -40q-190 0 -345 84.5t-219.5 196.5t-86 197.5t-21.5 170.5zM508 234q0 -72 43 -124q39 -44 91 -44q54 0 103 44 q56 44 91.5 136.5t47.5 150t12 109.5q0 61 -29 99q-16 16 -34.5 25t-42.5 9q-57 0 -118 -46t-112.5 -155t-51.5 -204z" />
<glyph unicode="A" horiz-adv-x="1607" d="M8 -131q0 74 38 93q85 38 172 77q167 95 390 308q-41 20 -79.5 28t-79.5 8q-87 0 -177 -37q-52 -26 -67 -33q59 56 118 76.5t128 20.5q36 0 96.5 -6t76.5 -6q36 0 162.5 197.5t183 289t106.5 191t95 228.5q26 -198 119.5 -562.5t283 -730.5t469.5 -484h-120 q-262 0 -426 158q-143 170 -285 340q-205 215 -519 304q-59 -69 -161.5 -183.5t-237.5 -230t-217 -115.5q-39 0 -54 15t-15 54zM727 382l479 -172q-20 46 -90.5 315t-80.5 335z" />
<glyph unicode="B" horiz-adv-x="1872" d="M8 775q0 308 227 433.5t753 125.5l36 31v-31q346 0 512 -124.5t166 -367.5q0 -98 -23 -135t-200 -171q97 -33 225.5 -165.5t128.5 -298.5q0 -259 -264.5 -400t-603.5 -141q-202 0 -350 52.5t-187 151.5q97 -66 168.5 -94.5t165.5 -28.5v1179q0 90 58 240t112 222h-393 q-428 -39 -428 -393q0 -205 93.5 -346.5t316.5 -269.5q-247 0 -380 157.5t-133 373.5zM834 -372q300 0 442.5 25.5t216 116.5t73.5 286q0 205 -93 322.5t-249 157.5q143 69 208 124.5t65 181.5q0 239 -142 333q-164 59 -200 78h-133v-1282q0 -82 -62 -174t-126 -169z" />
<glyph unicode="C" horiz-adv-x="1490" d="M31 449q0 267 110 474t270.5 320.5t304.5 113.5h549l170 -361l17 -16q-54 49 -134.5 122t-215.5 137.5t-317 64.5q-293 0 -403 -177t-110 -455q0 -382 153 -664t478 -282q177 0 299.5 69t195.5 161q26 41 54 82v10q0 -190 -113 -286t-472 -96q-377 0 -606.5 178.5 t-229.5 604.5z" />
<glyph unicode="D" horiz-adv-x="2046" d="M8 773q0 161 65.5 280.5t265.5 200t575 80.5l36 32v-32q215 0 346 -17.5t216 -41.5q29 -12 58 -22q95 -39 188 -127.5t158.5 -249t65.5 -394.5q0 -423 -231.5 -675.5t-610.5 -252.5h-462q-111 0 -232.5 68t-162.5 258q52 -139 166.5 -192t245.5 -81v1199q0 72 62 229.5 t110 217.5h-308q-244 0 -346 -116t-102 -278q0 -211 94.5 -350.5t317.5 -267.5q-254 0 -384.5 159.5t-130.5 372.5zM782 -377h358q108 26 217 51q164 46 265.5 180.5t101.5 437.5q0 436 -161 698.5t-423 262.5h-170v-1235q0 -70 -49 -172t-139 -223z" />
<glyph unicode="E" horiz-adv-x="1738" d="M8 791q0 274 169.5 408.5t605.5 134.5l33 31v-31h731q0 -79 65.5 -191t88.5 -188q-29 23 -128.5 119t-182.5 146t-186 50h-391v-615q33 16 174.5 136t269.5 120q82 0 126 -50t44 -120q0 -20 -9 -40.5t-9 -79.5l-16 85q0 57 -33 88.5t-87 31.5q-33 0 -150 -76.5 t-213.5 -217t-96.5 -339.5q0 -170 54 -204.5t236 -34.5q206 0 357.5 86t240.5 265q-10 -97 -61 -204.5t-93 -197.5h-1180q90 44 139 82t49 123v736q0 61 44.5 181t109.5 237h-255q-180 0 -261.5 -102t-81.5 -316q0 -233 78 -350t247 -214q-234 0 -331 146.5t-97 364.5z" />
<glyph unicode="F" horiz-adv-x="1882" d="M8 724q0 262 214 430t487 168l608 -1q265 0 375 2t215 12t149 28q-80 -103 -212 -166t-263 -63h-752q11 0 102 -37t200 -106.5t174 -159t84.5 -160t27.5 -122.5q133 0 249.5 61.5t171.5 198.5l-119 -512q-20 59 -30.5 92.5t-30.5 77.5q-69 -23 -130.5 -40t-98.5 -29v-23 t1 -33q0 -97 -14.5 -195.5t-77 -216t-228.5 -226.5t-451 -109q-331 0 -439.5 118t-108.5 326q0 257 176.5 377t439.5 120h428q-69 297 -228 430t-388 133q-206 0 -323.5 -92.5t-207.5 -282.5zM197 90q0 -174 143 -301t335 -127q234 0 357 155t123 360v221h-600 q-66 0 -212 -44t-146 -264z" />
<glyph unicode="G" horiz-adv-x="1733" d="M23 451q0 426 236.5 666t618.5 240q123 0 234 -15q164 -31 330 -62q-70 -141 -86 -186t-16 -114q-79 187 -219 255.5t-362 68.5q-272 0 -384.5 -178.5t-112.5 -453.5q0 -378 168 -667.5t483 -289.5q184 0 296.5 106.5t112.5 286.5q0 179 -83.5 218t-309.5 39 q-98 0 -173.5 -5.5t-106.5 -23t-48.5 -45t-30.5 -53.5q0 95 111.5 196.5t265.5 101.5q439 -16 534 -17q66 0 111 13.5t115 54.5q-26 -74 -102 -149.5t-224 -90.5q23 -51 42.5 -91t19.5 -58q0 -8 -0.5 -26t-0.5 -46q0 -256 -166.5 -359t-415.5 -103q-442 0 -639.5 227 t-197.5 560z" />
<glyph unicode="H" horiz-adv-x="1867" d="M8 860q0 226 159 361.5t372 135.5h462q-87 -36 -137.5 -88.5t-50.5 -134.5v-582q41 29 105.5 70.5t171 95.5t164 72t112.5 28l4 178q0 147 -30.5 228.5t-150.5 132.5h633q-113 -26 -154 -109t-41 -178q0 -26 1.5 -43.5t4.5 -30.5l-1 -159q2 -2 89.5 -27t108.5 -122 q-54 49 -83.5 61.5t-113.5 25.5v-616q0 -80 52.5 -134t136.5 -89h-633q82 34 135.5 92.5t53.5 130.5v582q-159 0 -362 -166.5t-203 -364.5q0 -134 49 -185t139 -89h-632q85 34 136.5 87.5t51.5 135.5v1044q0 51 -32 76t-89 25q-103 0 -214 -96t-111 -279q0 -185 75.5 -308 t249.5 -223q-213 0 -320.5 136t-107.5 326z" />
<glyph unicode="I" horiz-adv-x="1189" d="M8 862q0 247 177.5 371t369.5 124h716q-97 -41 -141.5 -93t-44.5 -130v-973q0 -62 40 -119.5t146 -102.5h-630q100 43 143 93t43 129v871q0 116 32 171q46 52 72 85h-428q-239 0 -315.5 -129.5t-76.5 -296.5q0 -147 82 -272t208 -125q90 1 136 109q42 100 87 100 q4 0 7 -1q21 -18 31.5 -38.5t10.5 -38.5q0 -67 -98 -122.5t-190 -55.5q-177 0 -277 127t-100 317z" />
<glyph unicode="J" horiz-adv-x="1372" d="M8 -188q0 129 38 226.5t154 97.5q-72 -16 -105.5 -79.5t-33.5 -141.5q0 -198 149 -339t349 -141q244 0 362 156.5t118 357.5v1082q0 39 27.5 118.5t75.5 138.5h-429q-234 0 -314.5 -125.5t-80.5 -303.5q0 -156 85 -278t228 -122q115 0 171.5 61.5t85.5 170.5 q0 -162 -85 -220t-210 -58q-180 0 -279 128.5t-99 298.5q0 233 162 375t386 142h721q-88 -36 -138 -91t-50 -134v-1080q0 -69 -51.5 -222t-227 -300.5t-511.5 -147.5q-300 0 -399 123t-99 307z" />
<glyph unicode="K" horiz-adv-x="1797" d="M8 809q0 242 178 395t420 153h1349q-147 -33 -201.5 -68.5t-259.5 -240t-248 -258.5t-43 -82q0 -16 113 -156.5t241.5 -294.5t208.5 -249q100 -129 221.5 -262.5t287.5 -251t327 -117.5q129 0 201 79.5t72 192.5q0 51 -22.5 85.5t-45.5 68.5q0 28 24.5 39.5t43.5 11.5 q59 0 89.5 -54t30.5 -133q0 -134 -104 -238t-271 -104q-202 0 -380.5 110t-367.5 302.5t-322.5 326t-311.5 332.5t-206 227v-461q0 -121 41 -153t130 -70h-700q152 33 204.5 86.5t52.5 136.5v990q0 85 -55 118.5t-133 33.5q-220 0 -340.5 -112t-120.5 -330q0 -203 91 -351.5 t301 -212.5q-262 0 -378.5 143.5t-116.5 367.5zM1032 742h18l511 529q-23 29 -77.5 40t-143.5 11q-123 0 -215.5 -30t-92.5 -140v-410z" />
<glyph unicode="L" horiz-adv-x="1181" d="M8 860q0 256 165 376.5t350 120.5h888q-156 -33 -240.5 -61t-84.5 -162v-1009q41 -88 82 -177q115 -200 310 -353.5t480 -153.5q113 0 176 29.5t63 124.5q0 62 -49 99t-87 64q29 56 66 75.5t70 19.5q15 -2 18 -2q59 0 80.5 -63t21.5 -126q0 -129 -81.5 -201t-312.5 -72 q-298 0 -452.5 99t-328.5 273.5t-279 174.5h-358q-106 0 -230 -87q-111 -95 -129 -108q93 200 277 244q139 15 278 28q128 26 128 192v916q0 92 -60.5 137.5t-178.5 45.5q-264 0 -371.5 -105t-107.5 -304q0 -164 93 -286t211 -122h37q80 0 132.5 43t97.5 199 q0 -172 -71.5 -226t-209.5 -54q-208 0 -300.5 117t-92.5 294z" />
<glyph unicode="M" horiz-adv-x="1993" d="M-16 57q57 -70 128.5 -112t170.5 -42q228 0 360 180.5t185 423t53 438.5q0 203 -40.5 281t-180.5 78q-252 0 -399.5 -129.5t-147.5 -348.5q0 -164 64 -287q70 -97 141 -192q0 -26 -45 -46.5t-75 -20.5q-8 0 -57 51t-90 148.5t-41 244.5q0 318 214.5 479.5t607.5 161.5 q164 0 247.5 -137.5t142.5 -381t85 -294.5q10 18 100 266.5t207.5 397.5t308.5 149q90 0 143.5 -33.5t81.5 -94.5q-92 102 -206 102q-128 0 -201 -126.5t-73 -267.5q0 -174 98 -438.5t285 -504.5t438 -341h-192q-359 0 -537.5 263t-235.5 612q-15 154 -28 308 q-59 -77 -124.5 -294t-131.5 -442q-33 33 -70.5 136t-118.5 342.5t-101 258.5q-28 -203 -104 -473t-219.5 -489t-343.5 -219q-125 0 -212 117t-87 276z" />
<glyph unicode="N" horiz-adv-x="1682" d="M8 832q0 277 164.5 401t469.5 124q233 0 343.5 -129t253 -451.5t275.5 -509.5v867q0 88 -62.5 139t-144.5 84h515q-149 -33 -203 -89t-54 -134v-975q0 -77 71 -219.5t195.5 -252.5t280.5 -110q52 0 123.5 33t131.5 87q-54 -77 -126.5 -123.5t-213.5 -46.5 q-202 0 -347.5 120t-267 334t-310.5 605.5t-238.5 471t-119.5 110.5v-1009q0 -80 57.5 -133.5t147.5 -89.5h-513q151 33 204 86t53 137v1060q-62 52 -100.5 69.5t-71.5 17.5q-21 -2 -33 -2q-198 0 -287.5 -116t-89.5 -293q0 -149 40.5 -245t107.5 -157.5t177 -128.5 q-229 0 -328.5 133.5t-99.5 334.5z" />
<glyph unicode="O" horiz-adv-x="1807" d="M67 451q0 185 56.5 385.5t246.5 362t552 161.5q411 0 624.5 -201.5t213.5 -588.5q0 -436 -235.5 -671t-620.5 -235q-408 0 -622.5 210.5t-214.5 576.5zM324 690q0 -437 165.5 -697t518.5 -260q277 0 386.5 169.5t109.5 428.5q0 241 -58 455.5t-210.5 359.5t-419.5 145 q-231 0 -361.5 -132.5t-130.5 -468.5z" />
<glyph unicode="P" horiz-adv-x="1723" d="M8 775q0 190 81 307t225.5 173t257.5 67.5t232 11.5q39 0 65 -1t45 -3l41 36v-36q106 0 260.5 -26t320 -156.5t165.5 -406.5q0 -218 -120 -323t-308 -105q-115 0 -183 41.5t-68 87.5q41 -33 84 -64q56 -34 131 -34q111 0 193 101.5t82 313.5q0 206 -76 308.5t-202 149.5 q-92 26 -182 53h-103v-1109q0 -115 137.5 -200.5t137.5 -162.5q0 -20 -2 -31q-44 87 -126.5 111.5t-217.5 24.5q-249 0 -405.5 -117t-156.5 -276q0 -74 23 -93.5t80 -60.5q-8 -2 -20 -3.5t-21 -1.5q-20 0 -60.5 9t-71.5 40t-31 94q0 103 123 239q115 113 235 232.5 t120 195.5v630q0 141 48.5 280.5t121.5 198.5h-20.5h-36.5q-129 0 -242 -9t-228 -58.5t-170 -136t-55 -206.5q0 -210 97.5 -350.5t312.5 -263.5q-252 0 -382.5 154.5t-130.5 374.5z" />
<glyph unicode="Q" horiz-adv-x="1861" d="M46 447q0 464 228 687t629 223q408 0 624 -208.5t216 -581.5q0 -252 -68.5 -405.5t-163 -252.5t-94.5 -112q25 -41 51 -84q70 -98 185 -170t280 -72q110 0 159 29.5t110 109.5q0 -87 -104 -147.5t-270 -60.5q-151 0 -260.5 48.5t-175 114.5t-129.5 163 q-56 -29 -164.5 -49t-212.5 -20q-428 0 -634 219t-206 569zM303 688q0 -301 47.5 -468.5t92 -219t138.5 -135t181 -114t182 -30.5q61 0 119 10t149 31q-54 170 -203.5 333.5t-259.5 163.5q-51 0 -88.5 -18t-65.5 -51q-5 11 -9 28.5t-4 28.5q0 51 55.5 74t163.5 23 q190 0 342.5 -131t239.5 -315q46 100 74.5 213t28.5 217q0 231 -53 443t-203 364.5t-412 152.5q-256 0 -385.5 -128t-129.5 -472z" />
<glyph unicode="R" horiz-adv-x="1884" d="M8 775q0 280 208 419.5t703 139.5l33 31v-33q483 0 684 -102.5t201 -351.5q0 -202 -164 -314.5t-410 -112.5q84 -134 229 -355.5t387.5 -454t468.5 -232.5q110 0 225.5 50.5t201.5 137.5q-90 -133 -213.5 -203.5t-349.5 -70.5q-292 0 -542.5 230.5t-406 492.5t-221.5 423 q270 0 403.5 64.5t133.5 275.5q0 165 -71 272t-320 189h-239v-1144q0 -70 42.5 -126t143.5 -95h-699q121 23 188 83.5t67 154.5v632q0 128 45.5 277t120.5 214h-18.5h-24.5q-88 0 -194 -8t-223 -36.5t-201.5 -116.5t-84.5 -261q0 -179 89.5 -323t320.5 -275 q-251 0 -382 155.5t-131 373.5z" />
<glyph unicode="S" horiz-adv-x="1618" d="M8 126q0 129 31 192.5t89 96.5q-33 -38 -43 -84t-10 -111q0 -247 251 -403t639 -156q269 0 373.5 64t104.5 265q0 216 -152 304t-444.5 128t-405.5 77.5t-176 150t-63 263.5q0 169 104.5 272t265.5 103h683l193 -379v-47q-195 205 -357 290t-416 85q-202 0 -288.5 -55.5 t-86.5 -183.5q0 -242 314.5 -307t619.5 -122q329 -115 329 -459q0 -179 -54 -305t-211.5 -204.5t-452.5 -78.5q-218 0 -395.5 40t-309.5 175t-132 389z" />
<glyph unicode="T" horiz-adv-x="1535" d="M8 724q0 282 209 440t492 158h204h162h129h102h80h62h49h38h30h23h18h37.5t22.5 2q128 0 216.5 2.5t160.5 13.5q-113 -120 -249 -169.5t-213 -49.5h-752q43 0 187 -63t278.5 -233t134.5 -461q0 -393 -219.5 -581t-550.5 -188q-246 0 -379.5 85.5t-178 207.5t-44.5 271 q0 218 120 368.5t344 150.5q146 0 253 -105.5t107 -243.5q0 -102 -63 -176t-135 -97q36 59 57.5 118.5t21.5 138.5q0 151 -77 229.5t-197 78.5q-113 0 -227.5 -109t-114.5 -302q0 -229 154 -390t386 -161q261 0 366.5 187.5t105.5 459.5q0 413 -175 611.5t-444 198.5 q-152 0 -249 -47.5t-157.5 -129.5t-124.5 -215z" />
<glyph unicode="U" horiz-adv-x="1889" d="M8 824q0 188 151 360.5t485 172.5h565q-211 -223 -291.5 -321.5t-125.5 -231t-45 -340.5q0 -292 119.5 -378t308.5 -86q126 0 235 74.5t109 181.5v979q0 59 -23 79t-80 43h394q54 0 97.5 -29.5t74.5 -82.5q-29 20 -58.5 39.5t-62.5 19.5q-34 0 -59.5 -29.5t-25.5 -73.5 v-1045q0 -66 43.5 -125.5t144.5 -97.5h-445v85q-3 -2 -102.5 -94.5t-199.5 -145t-231 -52.5q-277 0 -389 173t-112 445q0 305 101.5 498t218.5 293t199 169h-445q-203 0 -316.5 -133.5t-113.5 -330.5q0 -139 56 -252t175 -175q-161 16 -256.5 134t-95.5 277z" />
<glyph unicode="V" horiz-adv-x="1966" d="M8 791q0 269 187 417.5t429 148.5h513q-102 -102 -181 -312.5t-79 -493.5q0 -328 98 -576.5t264 -248.5q26 0 127.5 92t189 272t87.5 446q0 198 -77.5 346.5t-223.5 148.5q-29 0 -50 -19t-53 -57q18 113 99.5 223t157.5 110q103 0 256 -199t153 -450q0 -177 -116 -409 t-293 -399t-343 -167q-274 0 -401.5 239.5t-127.5 563.5q0 256 74 463t200 374h-261q-224 0 -375 -117t-151 -309q0 -143 81.5 -292t294.5 -271q-206 0 -342.5 134t-136.5 342z" />
<glyph unicode="W" horiz-adv-x="2323" d="M8 827q0 252 165.5 391t347.5 139h529q-44 0 -101.5 -26.5t-86.5 -77.5l383 -956q33 49 93 193t96 241.5t60 163.5q-13 38 -24 75q-34 92 -91.5 196t-141.5 191h580q-103 -23 -133.5 -51t-53.5 -87l359 -921q39 41 101.5 214t110 339t60.5 232q0 126 -73 182t-199 92h716 q-136 -26 -218.5 -112.5t-138.5 -168.5l-428 -1256l-375 973h-34l-341 -973q-5 18 -98.5 250.5t-191.5 475t-166 413.5t-116.5 258t-135.5 87q-126 0 -230 -105.5t-104 -303.5q0 -151 98 -298.5t244 -147.5q67 0 127 63t60 140q0 46 -23 82q8 -3 26 -17t18 -76 q0 -126 -78.5 -178t-198.5 -52q-174 0 -283.5 124.5t-109.5 291.5z" />
<glyph unicode="X" horiz-adv-x="1658" d="M8 773q0 234 144 409t490 175q215 0 335.5 -80.5t201.5 -216.5t84 -139l167 332q-21 49 -36.5 61.5t-84.5 42.5h515q-193 -41 -328.5 -165.5t-219.5 -383.5q0 -144 128 -428.5t334.5 -503t443.5 -218.5q121 0 204 50.5t139 116.5q-66 -118 -175.5 -175.5t-286.5 -57.5 q-323 0 -537.5 198.5t-318 418t-172.5 376.5q-70 -125 -162.5 -309t-92.5 -238q0 -44 85 -104h-428q164 57 290.5 223t204 340.5t77.5 202.5q0 72 -62 217.5t-179.5 266t-262.5 120.5q-205 0 -290.5 -149t-85.5 -364q0 -193 52.5 -275.5t203.5 -169.5q-205 0 -291 120.5 t-86 306.5z" />
<glyph unicode="Y" horiz-adv-x="858" d="M-159 1219h652q-52 -20 -77.5 -47t-25.5 -56q88 -102 180 -214t128 -181q92 195 160.5 312t202 220.5t323.5 103.5q192 0 302.5 -126.5t110.5 -319.5q-144 229 -211 276.5t-218 47.5q-210 0 -343.5 -163t-206.5 -382q-26 -97 -51 -192v-395q0 -69 57 -138.5t166 -100.5 h-600q88 38 138 88.5t50 134.5v445q0 34 -84 177t-250.5 293t-402.5 217z" />
<glyph unicode="Z" horiz-adv-x="1605" d="M3 1032q59 92 192 197.5t257 105.5l813 2q7 0 15 -1t23 -1q46 0 80 4.5t83 22.5l-717 -625q174 0 363 -75t320 -229t131 -376q0 -111 -65.5 -272.5t-267 -300.5t-571.5 -139q-300 0 -463 136.5t-163 389.5q0 236 150.5 375t375.5 139q265 0 361 -128t96 -352v-69 q-61 197 -199.5 338t-329.5 141q-175 0 -250 -102t-75 -257q0 -265 146.5 -401.5t382.5 -136.5q272 0 437.5 194.5t165.5 479.5q0 274 -195.5 418.5t-426.5 144.5q-39 0 -91 -18t-137 -52l624 549h-786q-46 0 -131 -37t-148 -65z" />
<glyph unicode="[" horiz-adv-x="537" d="M75 -338v1352h395v-52h-137v-1249h137v-51h-395z" />
<glyph unicode="\" horiz-adv-x="930" d="M93 1150h87l665 -1350h-85z" />
<glyph unicode="]" horiz-adv-x="557" d="M75 -287h138v1249h-138v52h395v-1352h-395v51z" />
<glyph unicode="^" horiz-adv-x="812" d="M75 346q36 56 155.5 176t188.5 148l325 -308v-16h-85l-240 239h-18l-239 -239h-87z" />
<glyph unicode="_" horiz-adv-x="930" d="M-3 -82h942v-51h-942v51z" />
<glyph unicode="`" horiz-adv-x="319" d="M15 1083l167 49q10 -49 19 -75t29.5 -69.5t48 -80.5t50.5 -53q-8 -2 -26 -2q-61 0 -124.5 28.5t-92.5 64t-43.5 70t-27.5 68.5z" />
<glyph unicode="a" horiz-adv-x="945" d="M46 292q0 300 106.5 401.5t306.5 181.5h326v-755q11 -3 41.5 -11.5t35.5 -8.5q7 0 22 12.5t38 25.5q-52 -52 -104 -105q-36 -33 -102 -33q-82 0 -105 85q-16 85 -33 172q-136 -136 -205.5 -196.5t-154.5 -60.5q-80 0 -126 74.5t-46 217.5zM236 446q0 -90 28 -139.5 t126 -49.5q57 0 99.5 26.5t88.5 78.5v444h-119q-118 -70 -170.5 -149.5t-52.5 -210.5z" />
<glyph unicode="b" horiz-adv-x="758" d="M46 226v821q0 103 53 177t153 133h240q-75 -116 -141 -119t-110 -34v-650q79 131 168 227t186 96q51 0 85 -50t34 -104v-361q0 -108 -113 -233.5t-280 -125.5q-113 0 -194 62.5t-81 160.5zM242 203q0 -33 37 -65t93 -32t97 27.5t41 74.5v377q0 25 -19 55t-34 30 q-64 0 -139.5 -96.5t-75.5 -122.5v-248z" />
<glyph unicode="c" horiz-adv-x="807" d="M38 360q0 234 133 374.5t348 140.5q67 0 162.5 -48.5t95.5 -123.5q0 -18 -53.5 -71.5t-92.5 -82.5q-41 93 -109 149.5t-140 56.5q-79 0 -125.5 -81t-46.5 -194q0 -200 91 -280t218 -80q54 0 95 13.5t94 46.5q-87 -113 -158.5 -146.5t-202.5 -33.5q-205 0 -257 102.5 t-52 257.5z" />
<glyph unicode="d" horiz-adv-x="938" d="M52 297q0 334 161 457.5t387 123.5q0 215 30.5 303.5t173.5 175.5h240q-79 -120 -137 -120t-119 -34v-1077l16 -34q28 7 51 15.5t53 26.5q-70 -84 -101.5 -105.5t-87.5 -21.5q-87 0 -110 95q-15 88 -27 178q-48 -74 -156 -173.5t-202 -99.5q-95 0 -133.5 81t-38.5 209z M259 451q0 -70 27 -120.5t109 -50.5q62 0 125 50t63 104v375h-103q-121 -72 -171 -142t-50 -216z" />
<glyph unicode="e" horiz-adv-x="847" d="M61 360q0 242 126 378.5t337 136.5q80 0 136 -27t140 -111l-499 -498q41 -69 97 -87.5t126 -18.5q59 0 126.5 36t124.5 73q-157 -242 -405 -242q-205 0 -257 102.5t-52 257.5zM246 483q0 -44 11 -90t36 -85q105 105 168 175.5t63 116.5q0 41 -32.5 97.5t-83.5 56.5 q-64 0 -113 -81.5t-49 -189.5z" />
<glyph unicode="f" horiz-adv-x="583" d="M-190 -688q0 123 163 146t163 131v1168h-120l104 102q0 254 62 376t242 122h359q-51 -79 -122 -104.5t-161 -25.5h-38t-34 2q-52 0 -77 -11.5t-25 -50.5v-292q56 0 141 7.5t100 38.5q-43 -97 -93 -131.5t-148 -34.5v-1032q0 -88 -71 -203.5t-257 -207.5h-188z" />
<glyph unicode="g" horiz-adv-x="838" d="M41 292q0 308 132 445.5t286 137.5h326v-1081q0 -128 -156.5 -305t-323.5 -177q-138 0 -192 82.5t-54 210.5q0 85 33.5 196.5t109.5 180.5q-110 85 -135.5 136t-25.5 174zM202 -310q0 -121 49.5 -189t122.5 -68q80 0 142 42t62 112v664q-138 -59 -257 -228.5t-119 -332.5 zM252 446q0 -77 31.5 -124.5t106.5 -47.5q56 0 94.5 29.5t93.5 91.5v411h-103q-120 -18 -171.5 -117.5t-51.5 -242.5z" />
<glyph unicode="h" horiz-adv-x="879" d="M46 5v1044q0 121 59 214.5t147 93.5h256q-67 -70 -100.5 -96.5t-48.5 -26.5q-3 0 -14.5 5t-21.5 5q-16 0 -39 -11.5t-50 -29.5v-651q26 43 73 114t126.5 144t159.5 73q54 0 87 -48.5t33 -110.5v-616q54 -20 77 -20q13 0 31 16t29 22q-75 -79 -99 -100t-105 -21 q-69 0 -94.5 37t-25.5 101v444q0 29 -19 62.5t-50 33.5q-52 0 -109.5 -70.5t-106.5 -142.5l-2 -277q0 -69 -25.5 -109t-80.5 -79h-87z" />
<glyph unicode="i" horiz-adv-x="534" d="M26 723q11 38 85 102.5t140 64.5q61 0 87 -50t26 -116v-559q7 -31 17.5 -44t24.5 -13q20 0 36.5 11.5t65.5 49.5q-51 -85 -101 -123.5t-112 -38.5q-54 0 -87 45.5t-33 106.5v598q-7 7 -15.5 12.5t-26.5 5.5q-21 0 -46 -11.5t-61 -40.5zM106 1150q0 75 38.5 106.5 t99.5 31.5q49 0 84.5 -37t35.5 -101q0 -54 -69 -120.5t-103 -66.5q-39 0 -62.5 62.5t-23.5 124.5z" />
<glyph unicode="j" horiz-adv-x="401" d="M-406 -210q79 -143 169 -242t226 -99q105 0 134 79.5t38 161.5v1065q-2 8 -7 15.5t-25 7.5q-16 0 -41.5 -9t-64.5 -30q20 31 69 93.5t139 62.5q77 0 95 -57.5t23 -116.5v-877q0 -131 -147.5 -331.5t-332.5 -200.5q-157 0 -216 134.5t-59 343.5zM92 1150q0 75 38 106.5 t99 31.5q67 0 93.5 -39.5t26.5 -98.5q0 -46 -60.5 -118t-111.5 -72q-36 0 -60.5 62.5t-24.5 127.5z" />
<glyph unicode="k" horiz-adv-x="876" d="M46 8v1041q0 134 47 187.5t158 120.5h239q-48 -74 -77.5 -98t-55.5 -24q-20 2 -31 2q-26 0 -46.5 -9t-45.5 -25v-633q92 100 180.5 190t229.5 118h188q-123 -57 -244 -113q-151 -80 -234 -185q149 -44 213 -164q34 -97 70 -192.5t126 -95.5q20 0 52 19.5t50 31.5 q-46 -70 -100 -120.5t-121 -50.5q-84 0 -133 103q-43 103 -85 207q-66 121 -184 151q-7 -56 -8 -98t-1 -92v-59q0 -108 -31.5 -151t-155.5 -61z" />
<glyph unicode="l" horiz-adv-x="450" d="M38 159v890q0 121 57 214.5t149 93.5h256q-41 -46 -103.5 -92t-170.5 -46v-1060q20 0 37 -10.5t25 -10.5q16 0 51.5 15.5t91.5 49.5q-72 -66 -146.5 -131t-127.5 -65q-57 0 -88 50.5t-31 101.5z" />
<glyph unicode="m" horiz-adv-x="1394" d="M-59 668q143 143 183 176t64 33q61 0 76 -110t18 -221q80 146 176 238.5t174 92.5q62 0 96 -75.5t34 -224.5v-19v-7q66 90 133 181q121 144 217 145q59 0 89.5 -55t30.5 -99v-600q2 -2 6 -8.5t20 -6.5t44 13t68 44q1 -3 1 -6q-1 -33 -67 -92q-72 -64 -141 -64 q-51 0 -85 50t-34 104v430q0 25 -20.5 63t-48.5 38q-48 0 -134 -108t-86 -125v-332q-11 -41 -65 -75t-126 -45v584q0 33 -18 67t-50 34q-51 0 -135 -108t-84 -125v-332q-11 -43 -67 -76.5t-125 -43.5v685q-3 10 -10.5 15t-22.5 5q-21 0 -43 -7.5t-68 -32.5z" />
<glyph unicode="n" horiz-adv-x="914" d="M-62 672q62 69 132 137t118 68q52 0 69.5 -102t17.5 -213v-20.5v-7.5q79 144 179.5 243.5t177.5 99.5q54 0 87 -51t33 -103v-600q5 -7 11.5 -9.5t19.5 -2.5q21 0 46 11.5t64 44.5q-105 -164 -208 -164q-51 0 -85.5 41t-34.5 97v444q0 36 -22 69.5t-47 33.5 q-79 0 -132 -82.5t-92 -168.5l2 -314q-11 -43 -61.5 -75.5t-127.5 -44.5v685q-3 10 -10.5 20t-31.5 10q-16 0 -43.5 -11.5t-61.5 -34.5z" />
<glyph unicode="o" horiz-adv-x="922" d="M54 416q0 185 134.5 323t311.5 138q169 0 264 -115.5t95 -294.5q0 -188 -135.5 -325t-308.5 -137q-165 0 -263 114.5t-98 296.5zM242 536q0 -138 53.5 -283t186.5 -145q85 0 136.5 63t51.5 176q0 162 -55.5 295t-183.5 133q-84 0 -136.5 -65.5t-52.5 -173.5z" />
<glyph unicode="p" horiz-adv-x="888" d="M-54 649q62 77 138 153t155 76q29 0 40 -31t11 -175q79 116 147 164.5t146 48.5q72 0 163 -110t91 -308q0 -200 -161.5 -330t-265.5 -130q-26 0 -68 22.5t-52 27.5v-460q0 -43 51 -99.5t100 -108.5q-97 49 -129 59.5t-73 10.5q-61 0 -137.5 -45t-145.5 -87q2 7 74 86 t72 115v1127q-21 33 -61 33q-34 0 -59 -14.5t-36 -24.5zM290 295q10 -57 65 -104.5t123 -47.5q90 0 122 75t32 198q0 111 -29.5 192.5t-107.5 81.5q-72 0 -133.5 -44.5t-71.5 -83.5v-267z" />
<glyph unicode="q" horiz-adv-x="873" d="M54 308q0 277 116.5 422t278.5 145h344v-1219q0 -39 55.5 -97.5t85.5 -107.5q-43 41 -88.5 54t-103.5 13q-57 0 -126.5 -31t-155.5 -95q0 21 72.5 95t72.5 118v669q-82 -92 -182 -183t-197 -91q-106 0 -139 92t-33 216zM261 446q0 -77 31 -124.5t106 -47.5 q56 0 94.5 29.5t94.5 91.5v411h-120q-105 0 -155.5 -96.5t-50.5 -263.5z" />
<glyph unicode="r" horiz-adv-x="824" d="M-36 650q-1 3 -1 7q1 34 97 122q108 98 151 98q62 0 75.5 -68t13.5 -257q74 108 166.5 216.5t188.5 108.5q56 0 88 -40.5t32 -95.5q0 -61 -55 -127.5t-176 -187.5q10 21 19.5 65.5t9.5 85.5q0 49 -14.5 77.5t-50.5 28.5q-33 0 -92.5 -70.5t-115.5 -143.5v-354 q-34 -33 -82 -67.5t-110 -42.5v685q-5 7 -18 15t-28 8q-21 0 -43 -12.5t-55 -50.5z" />
<glyph unicode="s" horiz-adv-x="675" d="M38 313q66 -120 137.5 -188.5t204.5 -68.5q79 0 108.5 25t29.5 94q0 80 -120.5 141.5t-235.5 120.5q-124 84 -124 216q0 117 83.5 170.5t207.5 53.5q31 0 101 -11t96 -11t49 3t62 19q-34 -57 -50.5 -101t-34.5 -104q-79 70 -133.5 94.5t-139.5 24.5q-84 0 -119 -22 t-35 -63q0 -61 168.5 -133.5t256 -131t87.5 -197.5q0 -154 -98 -196.5t-260 -42.5t-201.5 46t-39.5 262z" />
<glyph unicode="t" horiz-adv-x="545" d="M-11 791q0 34 110.5 109t197.5 301v-323h168q-26 -59 -75 -72t-93 -15v-630q5 -8 13 -15.5t29 -7.5q26 0 68 22t103 78q-61 -95 -148 -163t-152 -68q-43 0 -72.5 45.5t-29.5 108.5v630h-119z" />
<glyph unicode="u" horiz-adv-x="1004" d="M-29 742q46 72 102 104t120 32q67 0 83.5 -50.5t20.5 -103.5v-377q0 -59 45 -105.5t91 -46.5q29 0 91.5 64.5t62.5 122.5v342q0 64 53 109t133 45v-717q5 -8 15 -15.5t33 -7.5q31 0 69.5 20.5t97.5 75.5q-48 -74 -125 -150.5t-157 -76.5q-77 0 -107 55.5t-30 148.5 q-57 -69 -125.5 -136.5t-130.5 -67.5q-95 0 -150 77t-55 144v531q0 5 -1.5 14.5t-24.5 9.5q-18 0 -43.5 -9t-67.5 -32z" />
<glyph unicode="v" horiz-adv-x="966" d="M-38 624q44 70 148.5 164.5t153.5 94.5q64 0 118.5 -92.5t145.5 -287.5t147 -264q28 34 58 115.5t30 163.5q0 79 -41.5 133t-121.5 104q23 41 78.5 102t93.5 61q31 0 95.5 -84.5t64.5 -181.5q0 -56 -60 -167q-70 -116 -152.5 -254t-129.5 -249q-95 146 -190 356.5 t-141 279t-133 68.5q-23 0 -79.5 -22.5t-84.5 -39.5z" />
<glyph unicode="w" horiz-adv-x="1571" d="M-54 659q44 69 130 143.5t163 74.5q62 0 105 -62.5t127 -241t161 -312.5q18 23 103.5 190.5t85.5 185.5q0 25 -21.5 43t-81.5 61q43 46 89.5 91t64.5 45q38 0 109.5 -139.5t146.5 -289.5t120 -187q36 48 78 149t42 142q0 61 -46.5 132t-107.5 107l108 108q49 46 62 46 q26 0 79 -56.5t75 -147.5l-375 -754l-291 565h-35l-290 -565q-16 28 -119.5 253t-185 354t-157.5 129q-16 0 -45.5 -15t-93.5 -49z" />
<glyph unicode="x" horiz-adv-x="1005" d="M-49 726q92 106 130 129t122 23q116 0 193 -102.5t132 -205.5q26 39 69.5 106.5t43.5 123.5q0 23 -11.5 35t-49.5 43h306q-8 0 -68.5 -43.5t-135 -129.5t-130.5 -213q31 -129 87 -258t180 -129q31 0 69.5 18t89.5 49q-34 -82 -96.5 -123.5t-147.5 -41.5q-138 0 -202.5 75 t-149.5 239q-34 -59 -80 -141q-39 -70 -38 -99q0 -5 1 -9q7 -20 24 -37t34 -28h-272q134 80 214.5 194.5t90.5 188.5q-43 128 -103.5 254t-155.5 126q-23 0 -59 -10.5t-87 -33.5z" />
<glyph unicode="y" horiz-adv-x="956" d="M-36 614q48 75 151 175.5t152 100.5q66 0 124 -94.5t151.5 -292t140.5 -264.5q28 51 55 116.5t27 142.5q0 82 -42.5 146.5t-119.5 114.5q23 41 78.5 101.5t93.5 60.5q21 0 93 -74t72 -195q0 -84 -67 -189.5t-123 -188.5q-51 -95 -108 -207.5t-100.5 -224.5t-43.5 -186 q0 -100 61.5 -182t158.5 -82q82 0 128.5 64t77.5 131q0 -157 -94 -215t-216 -58q-159 0 -233.5 52t-74.5 187q0 85 54.5 186.5t193.5 283.5q-38 82 -98.5 216.5t-143.5 284t-112.5 156t-40.5 6.5q-38 0 -84.5 -16t-110.5 -56z" />
<glyph unicode="z" horiz-adv-x="840" d="M-21 306q48 59 105 117.5t104 58.5h168l275 273h-420q-20 -13 -37 -24q-31 -29 -31 -79q0 -46 39 -72q51 -23 67 -31q-106 0 -149.5 36t-43.5 85q0 125 74 160.5t149 46.5h550l-398 -395h136q41 0 69.5 8t68.5 28q-49 -64 -107.5 -106t-109.5 -73h-196q-49 -43 -99 -99 t-50 -119h427q97 0 164 103q52 110 59 122v-225q-33 -67 -53.5 -93t-66.5 -26h-599v119q20 52 52.5 114t94.5 104h-141q-41 0 -64 -10.5t-37 -22.5z" />
<glyph unicode="{" horiz-adv-x="717" d="M100 228q72 0 92.5 93.5t20.5 240.5v66q0 98 116 245.5t280 147.5q-147 -80 -165 -165.5t-31 -319t-98 -318.5q88 -88 94.5 -254t11.5 -318q26 -170 159 -259q-139 0 -253 158t-114 253v91q0 152 -20.5 245.5t-92.5 93.5z" />
<glyph unicode="|" horiz-adv-x="373" d="M118 -560v1828l120 80v-1805z" />
<glyph unicode="}" horiz-adv-x="717" d="M131 1021q165 0 281 -146.5t116 -246.5v-68q0 -152 20.5 -242t92.5 -90q-69 0 -91 -92.5t-22 -240.5v-97q0 -95 -114 -253t-253 -158q131 87 157 257q5 154 11.5 319t96.5 255q-84 84 -97 312.5t-31.5 319t-166.5 171.5z" />
<glyph unicode="~" horiz-adv-x="933" d="M75 921q16 102 71 165.5t152 63.5q52 0 189 -68t204 -68q66 0 101 25.5t88 86.5q-20 -105 -72.5 -168t-150.5 -63q-57 0 -195.5 68t-197.5 68q-67 0 -101.5 -25.5t-87.5 -84.5z" />
<glyph unicode="&#xa1;" horiz-adv-x="747" d="M52 3q67 102 127 374.5t98.5 404.5t169.5 347q44 -125 57.5 -188t13.5 -117q0 -18 -1 -36t-1 -38q0 -198 -80 -353.5t-187.5 -254t-196.5 -139.5zM233 1471q15 23 94 106.5t102 83.5q15 0 61.5 -48t120.5 -89q-26 -34 -101.5 -111.5t-96.5 -77.5q-11 0 -67 52.5 t-113 83.5z" />
<glyph unicode="&#xa2;" horiz-adv-x="874" d="M90 518q0 197 98 302.5t227 105.5v127h85v-132q100 -16 184 -78.5t101 -162.5q-36 36 -85.5 63t-91.5 48h-108v-558h75q49 15 106.5 38.5t108.5 72.5q-29 -110 -105 -160.5t-184 -77.5v-131h-85v120q-134 0 -230 105t-96 318zM233 516q0 -138 38.5 -192.5t143.5 -89.5 v556q-97 -20 -139.5 -77.5t-42.5 -196.5z" />
<glyph unicode="&#xa8;" horiz-adv-x="614" d="M16 877q7 15 55 69.5t68 57.5q25 0 66.5 -35t68.5 -76l-123 -123q-38 38 -64 58.5t-71 48.5zM331 872q7 15 55 69.5t68 57.5q25 0 66.5 -35t67.5 -76l-123 -123q-38 38 -64 58.5t-70 48.5z" />
<glyph unicode="&#xa9;" horiz-adv-x="1346" d="M75 618q0 311 161.5 456t458.5 145q323 0 462 -168t139 -433q0 -344 -167 -482t-452 -138q-315 0 -458.5 162.5t-143.5 457.5zM213 618q0 -200 98.5 -341t383.5 -141q224 0 343.5 110t119.5 354q0 226 -99 358t-364 132q-226 0 -354 -102t-128 -370zM374 562 q0 157 90 259.5t183 102.5h220l69 -144l6 -7q-38 31 -75 63q-80 51 -184 50q-118 0 -165.5 -65.5t-47.5 -170.5q0 -152 60 -261t193 -109q102 0 147.5 37.5t71.5 78.5q0 -74 -45 -111.5t-189 -37.5q-149 0 -241.5 72.5t-92.5 242.5z" />
<glyph unicode="&#xaa;" horiz-adv-x="655" d="M208 965q0 100 32.5 132t101.5 61h109v-250q8 -2 13.5 -3t10.5 -2q10 7 21 13q-25 -25 -36 -35.5t-32 -10.5q-31 0 -36 31t-9 54l-47 -47q-44 -38 -72 -38q-56 0 -56 95zM269 1016q0 -28 9.5 -44.5t42.5 -16.5q18 0 32 9t30 26v145h-41q-38 -23 -55.5 -49.5t-17.5 -69.5z " />
<glyph unicode="&#xab;" d="M126 488v15l293 293h138l-293 -293v-15l277 -293h-122zM441 488v15l293 293h138l-294 -293v-15l277 -293h-121z" />
<glyph unicode="&#xad;" horiz-adv-x="1199" d="M162 360q51 157 179 196t358 46t312 50q-79 -165 -205 -201t-341 -38t-303 -53z" />
<glyph unicode="&#xae;" horiz-adv-x="1346" d="M75 618q0 311 161.5 456t458.5 145q323 0 462 -168t139 -433q0 -344 -167 -482t-452 -138q-315 0 -458.5 162.5t-143.5 457.5zM213 618q0 -200 98.5 -341t383.5 -141q224 0 343.5 110t119.5 354q0 226 -99 358t-364 132q-226 0 -354 -101.5t-128 -370.5zM454 274v670h344 q87 -28 120.5 -60t33.5 -147q0 -88 -56.5 -129t-115.5 -67l241 -249v-18h-120l-260 265h-24.5t-31.5 2q-44 0 -44 -7l-2 -260h-85zM557 652h241q20 10 38.5 30.5t18.5 67.5q0 51 -18 67.5t-39 22.5h-241v-188z" />
<glyph unicode="&#xb0;" horiz-adv-x="806" d="M213 1168q0 88 59 138.5t147 50.5t138.5 -59t50.5 -148q0 -88 -59 -138t-148 -50q-88 0 -138 59t-50 147zM316 1168q0 -43 20 -73t65 -30q43 0 73.5 17t30.5 68q0 43 -20 73t-66 30q-41 0 -72 -20.5t-31 -64.5z" />
<glyph unicode="&#xb4;" horiz-adv-x="319" d="M23 601q29 20 55.5 60t41 70.5t28.5 68t22 80.5l168 -49q-20 -49 -31.5 -76.5t-40 -62.5t-92.5 -63.5t-126 -28.5q-16 0 -25 1z" />
<glyph unicode="&#xb7;" horiz-adv-x="655" d="M161 667q16 29 80 101t92 77q33 0 92.5 -50t93.5 -104l-170 -170q-54 54 -90 81t-98 65z" />
<glyph unicode="&#xba;" horiz-adv-x="655" d="M164 1019q0 106 51 154t144 48q102 0 145 -56t43 -146q0 -116 -53 -166t-142 -50q-98 0 -143 57.5t-45 158.5zM208 1019q0 -72 29.5 -118.5t121.5 -46.5q72 0 108 36t36 123q0 79 -30.5 123.5t-113.5 44.5q-70 0 -110.5 -35t-40.5 -127z" />
<glyph unicode="&#xbb;" d="M125 796h137l293 -293v-15l-293 -293h-121l277 293v15zM439 796h138l293 -293v-15l-293 -293h-122l277 293v15z" />
<glyph unicode="&#xbf;" horiz-adv-x="1459" d="M72 165q0 224 115.5 349t359 323t243.5 302q0 41 -50 72t-139 31q-93 0 -146.5 -53.5t-53.5 -130.5q0 -41 18 -85q-33 11 -37 55t-7 68q0 123 63 194.5t283 71.5q133 0 194 -40.5t61 -148.5q0 -136 -179 -263t-351 -248q-185 -169 -185 -393q0 -242 185 -390.5 t394 -148.5q179 0 286.5 118.5t107.5 300.5q0 141 -74 256.5t-234 203.5h119q179 -79 243.5 -168.5t64.5 -240.5q0 -213 -154.5 -371t-544.5 -158q-582 0 -582 494zM465 1583q0 59 66.5 89t154.5 30q115 0 160 -40t45 -96q0 -57 -67 -88t-154 -31q-85 0 -145 30t-60 106z " />
<glyph unicode="&#xc0;" horiz-adv-x="1607" d="M8 -131q0 74 38 93q85 38 172 77q167 95 390 308q-41 20 -79.5 28t-79.5 8q-87 0 -177 -37q-52 -26 -67 -33q59 56 118 76.5t128 20.5q36 0 96.5 -6t76.5 -6q36 0 162.5 197.5t183 289t106.5 191t95 228.5q26 -198 119.5 -562.5t283 -730.5t469.5 -484h-120 q-262 0 -426 158q-143 170 -285 340q-205 215 -519 304q-59 -69 -161.5 -183.5t-237.5 -230t-217 -115.5q-39 0 -54 15t-15 54zM727 382l479 -172q-20 46 -90.5 315t-80.5 335zM826 1696l183 54q13 -62 22 -89.5t31 -66.5q13 -31 44.5 -79.5t64.5 -71.5q-8 -2 -26 -1 q-70 0 -140.5 31t-101.5 70.5t-47 77t-30 75.5z" />
<glyph unicode="&#xc1;" horiz-adv-x="1607" d="M8 -131q0 74 38 93q85 38 172 77q167 95 390 308q-41 20 -79.5 28t-79.5 8q-87 0 -177 -37q-52 -26 -67 -33q59 56 118 76.5t128 20.5q36 0 96.5 -6t76.5 -6q36 0 162.5 197.5t183 289t106.5 191t95 228.5q26 -198 119.5 -562.5t283 -730.5t469.5 -484h-120 q-262 0 -426 158q-143 170 -285 340q-205 215 -519 304q-59 -69 -161.5 -183.5t-237.5 -230t-217 -115.5q-39 0 -54 15t-15 54zM727 382l479 -172q-20 46 -90.5 315t-80.5 335zM1121 1425q34 23 63.5 68t45.5 83q16 29 29.5 68t23.5 88l183 -54q-20 -52 -33 -82.5t-44 -69 t-102 -70.5t-140 -32q-18 0 -26 1z" />
<glyph unicode="&#xc2;" horiz-adv-x="1607" d="M8 -131q0 74 38 93q85 38 172 77q167 95 390 308q-41 20 -79.5 28t-79.5 8q-87 0 -177 -37q-52 -26 -67 -33q59 56 118 76.5t128 20.5q36 0 96.5 -6t76.5 -6q36 0 162.5 197.5t183 289t106.5 191t95 228.5q26 -198 119.5 -562.5t283 -730.5t469.5 -484h-120 q-262 0 -426 158q-143 170 -285 340q-205 215 -519 304q-59 -69 -161.5 -183.5t-237.5 -230t-217 -115.5q-39 0 -54 15t-15 54zM727 382l479 -172q-20 46 -90.5 315t-80.5 335zM821 1429q39 54 171 175t207 149l357 -308v-16h-93l-264 239h-19l-264 -239h-95z" />
<glyph unicode="&#xc3;" horiz-adv-x="1607" d="M8 -131q0 74 38 93q85 38 172 77q167 95 390 308q-41 20 -79.5 28t-79.5 8q-87 0 -177 -37q-52 -26 -67 -33q59 56 118 76.5t128 20.5q36 0 96.5 -6t76.5 -6q36 0 162.5 197.5t183 289t106.5 191t95 228.5q26 -198 119.5 -562.5t283 -730.5t469.5 -484h-120 q-262 0 -426 158q-143 170 -285 340q-205 215 -519 304q-59 -69 -161.5 -183.5t-237.5 -230t-217 -115.5q-39 0 -54 15t-15 54zM727 382l479 -172q-20 46 -90.5 315t-80.5 335zM783 1481q16 102 71 165.5t152 63.5q52 0 189 -67.5t204 -67.5q66 0 101 25t88 86 q-20 -105 -72.5 -168t-150.5 -63q-57 0 -195.5 68t-197.5 68q-67 0 -101.5 -25.5t-87.5 -84.5z" />
<glyph unicode="&#xc4;" horiz-adv-x="1607" d="M8 -131q0 74 38 93q85 38 172 77q167 95 390 308q-41 20 -79.5 28t-79.5 8q-87 0 -177 -37q-52 -26 -67 -33q59 56 118 76.5t128 20.5q36 0 96.5 -6t76.5 -6q36 0 162.5 197.5t183 289t106.5 191t95 228.5q26 -198 119.5 -562.5t283 -730.5t469.5 -484h-120 q-262 0 -426 158q-143 170 -285 340q-205 215 -519 304q-59 -69 -161.5 -183.5t-237.5 -230t-217 -115.5q-39 0 -54 15t-15 54zM727 382l479 -172q-20 46 -90.5 315t-80.5 335zM873 1540q8 18 60 77t75 62q26 0 72 -38.5t75 -82.5l-134 -136q-49 49 -75.5 68t-72.5 50z M1219 1534q3 10 54.5 73.5t79.5 66.5q28 0 73 -38.5t75 -83.5l-135 -135q-43 43 -64.5 60t-82.5 57z" />
<glyph unicode="&#xc5;" horiz-adv-x="1607" d="M8 -131q0 74 38 93q85 38 172 77q167 95 390 308q-41 20 -79.5 28t-79.5 8q-87 0 -177 -37q-52 -26 -67 -33q59 56 118 76.5t128 20.5q36 0 96.5 -6t76.5 -6q36 0 162.5 197.5t183 289t106.5 191t95 228.5q26 -198 119.5 -562.5t283 -730.5t469.5 -484h-120 q-262 0 -426 158q-143 170 -285 340q-205 215 -519 304q-59 -69 -161.5 -183.5t-237.5 -230t-217 -115.5q-39 0 -54 15t-15 54zM727 382l479 -172q-20 46 -90.5 315t-80.5 335zM995 1601q0 88 44.5 127.5t131.5 39.5q93 0 132 -46t39 -121q0 -98 -47.5 -138.5t-129.5 -40.5 q-90 0 -130 46t-40 133zM1034 1601q0 -59 27 -98.5t110 -39.5q66 0 99 29.5t33 101.5q0 66 -28 103.5t-104 37.5q-64 0 -100.5 -29.5t-36.5 -104.5z" />
<glyph unicode="&#xc8;" horiz-adv-x="1738" d="M8 791q0 274 169.5 408.5t605.5 134.5l33 31v-31h731q0 -79 65.5 -191t88.5 -188q-29 23 -128.5 119t-182.5 146t-186 50h-391v-615q33 16 174.5 136t269.5 120q82 0 126 -50t44 -120q0 -20 -9 -40.5t-9 -79.5l-16 85q0 57 -33 88.5t-87 31.5q-33 0 -150 -76.5 t-213.5 -217t-96.5 -339.5q0 -170 54 -204.5t236 -34.5q206 0 357.5 86t240.5 265q-10 -97 -61 -204.5t-93 -197.5h-1180q90 44 139 82t49 123v736q0 61 44.5 181t109.5 237h-255q-180 0 -261.5 -102t-81.5 -316q0 -233 78 -350t247 -214q-234 0 -331 146.5t-97 364.5z M1035 1668l184 54q13 -62 22 -89t30 -67q13 -31 45 -79t65 -71q-8 -2 -26 -2q-70 0 -140.5 31t-102 70.5t-47 77t-30.5 75.5z" />
<glyph unicode="&#xc9;" horiz-adv-x="1738" d="M8 791q0 274 169.5 408.5t605.5 134.5l33 31v-31h731q0 -79 65.5 -191t88.5 -188q-29 23 -128.5 119t-182.5 146t-186 50h-391v-615q33 16 174.5 136t269.5 120q82 0 126 -50t44 -120q0 -20 -9 -40.5t-9 -79.5l-16 85q0 57 -33 88.5t-87 31.5q-33 0 -150 -76.5 t-213.5 -217t-96.5 -339.5q0 -170 54 -204.5t236 -34.5q206 0 357.5 86t240.5 265q-10 -97 -61 -204.5t-93 -197.5h-1180q90 44 139 82t49 123v736q0 61 44.5 181t109.5 237h-255q-180 0 -261.5 -102t-81.5 -316q0 -233 78 -350t247 -214q-234 0 -331 146.5t-97 364.5z M1124 1453q29 20 55.5 60t41 70.5t28.5 68t22 80.5l168 -49q-20 -49 -31.5 -76.5t-40 -62.5t-92.5 -63.5t-126 -28.5q-16 0 -25 1z" />
<glyph unicode="&#xca;" horiz-adv-x="1738" d="M8 791q0 274 169.5 408.5t605.5 134.5l33 31v-31h731q0 -79 65.5 -191t88.5 -188q-29 23 -128.5 119t-182.5 146t-186 50h-391v-615q33 16 174.5 136t269.5 120q82 0 126 -50t44 -120q0 -20 -9 -40.5t-9 -79.5l-16 85q0 57 -33 88.5t-87 31.5q-33 0 -150 -76.5 t-213.5 -217t-96.5 -339.5q0 -170 54 -204.5t236 -34.5q206 0 357.5 86t240.5 265q-10 -97 -61 -204.5t-93 -197.5h-1180q90 44 139 82t49 123v736q0 61 44.5 181t109.5 237h-255q-180 0 -261.5 -102t-81.5 -316q0 -233 78 -350t247 -214q-234 0 -331 146.5t-97 364.5z M732 1473q39 54 171.5 175t207.5 149l357 -308v-16h-93l-264 239h-20l-264 -239h-95z" />
<glyph unicode="&#xcb;" horiz-adv-x="1738" d="M8 791q0 274 169.5 408.5t605.5 134.5l33 31v-31h731q0 -79 65.5 -191t88.5 -188q-29 23 -128.5 119t-182.5 146t-186 50h-391v-615q33 16 174.5 136t269.5 120q82 0 126 -50t44 -120q0 -20 -9 -40.5t-9 -79.5l-16 85q0 57 -33 88.5t-87 31.5q-33 0 -150 -76.5 t-213.5 -217t-96.5 -339.5q0 -170 54 -204.5t236 -34.5q206 0 357.5 86t240.5 265q-10 -97 -61 -204.5t-93 -197.5h-1180q90 44 139 82t49 123v736q0 61 44.5 181t109.5 237h-255q-180 0 -261.5 -102t-81.5 -316q0 -233 78 -350t247 -214q-234 0 -331 146.5t-97 364.5z M829 1555q8 18 59.5 77t74.5 62q26 0 72 -38.5t76 -82.5l-135 -136q-49 49 -75 68t-72 50zM1175 1548q3 10 54.5 74t79.5 67q28 0 73 -38.5t75 -84.5l-135 -134q-43 43 -65 60t-82 56z" />
<glyph unicode="&#xcc;" horiz-adv-x="1189" d="M8 862q0 247 177.5 371t369.5 124h716q-97 -41 -141.5 -93t-44.5 -130v-973q0 -62 40 -119.5t146 -102.5h-630q100 43 143 93t43 129v871q0 116 32 171q46 52 72 85h-428q-239 0 -315.5 -129.5t-76.5 -296.5q0 -147 82 -272t208 -125q90 0 136 108.5t94 99.5 q21 -18 31.5 -38.5t10.5 -38.5q0 -67 -98 -122.5t-190 -55.5q-177 0 -277 127t-100 317zM800 1694l183 54q13 -62 22 -89t30 -66q13 -31 45 -79.5t65 -71.5q-8 -2 -26 -2q-70 0 -140.5 31t-102 70.5t-47 77t-29.5 75.5z" />
<glyph unicode="&#xcd;" horiz-adv-x="1189" d="M8 862q0 247 177.5 371t369.5 124h716q-97 -41 -141.5 -93t-44.5 -130v-973q0 -62 40 -119.5t146 -102.5h-630q100 43 143 93t43 129v871q0 116 32 171q46 52 72 85h-428q-239 0 -315.5 -129.5t-76.5 -296.5q0 -147 82 -272t208 -125q90 0 136 108.5t94 99.5 q21 -18 31.5 -38.5t10.5 -38.5q0 -67 -98 -122.5t-190 -55.5q-177 0 -277 127t-100 317zM859 1452q34 23 63.5 68t45.5 82q16 29 29.5 68t23.5 88l183 -54q-20 -52 -33 -82.5t-44 -69t-102 -70.5t-140 -32q-18 0 -26 2z" />
<glyph unicode="&#xce;" horiz-adv-x="1189" d="M8 862q0 247 177.5 371t369.5 124h716q-97 -41 -141.5 -93t-44.5 -130v-973q0 -62 40 -119.5t146 -102.5h-630q100 43 143 93t43 129v871q0 116 32 171q46 52 72 85h-428q-239 0 -315.5 -129.5t-76.5 -296.5q0 -147 82 -272t208 -125q90 0 136 108.5t94 99.5 q21 -18 31.5 -38.5t10.5 -38.5q0 -67 -98 -122.5t-190 -55.5q-177 0 -277 127t-100 317zM541 1473q39 54 171 175t207 149l357 -308v-16h-93l-264 239h-20l-263 -239h-95z" />
<glyph unicode="&#xcf;" horiz-adv-x="1189" d="M8 862q0 247 177.5 371t369.5 124h716q-97 -41 -141.5 -93t-44.5 -130v-973q0 -62 40 -119.5t146 -102.5h-630q100 43 143 93t43 129v871q0 116 32 171q46 52 72 85h-428q-239 0 -315.5 -129.5t-76.5 -296.5q0 -147 82 -272t208 -125q90 0 136 108.5t94 99.5 q21 -18 31.5 -38.5t10.5 -38.5q0 -67 -98 -122.5t-190 -55.5q-177 0 -277 127t-100 317zM623 1570q8 18 59.5 77t74.5 62q26 0 72 -38.5t75 -82.5l-134 -136q-49 49 -75.5 67.5t-71.5 50.5zM968 1563q3 10 55 74t80 67q28 0 73 -38.5t74 -84.5l-134 -134q-43 43 -65 60 t-83 56z" />
<glyph unicode="&#xd1;" horiz-adv-x="1682" d="M8 832q0 277 164.5 401t469.5 124q233 0 343.5 -129t253 -451.5t275.5 -509.5v867q0 88 -62.5 139t-144.5 84h515q-149 -33 -203 -89t-54 -134v-975q0 -77 71 -219.5t195.5 -252.5t280.5 -110q52 0 123.5 33t131.5 87q-54 -77 -126.5 -123.5t-213.5 -46.5 q-202 0 -347.5 120t-267 334t-310.5 605.5t-238.5 471t-119.5 110.5v-1009q0 -80 57.5 -133.5t147.5 -89.5h-513q151 33 204 86t53 137v1060q-62 52 -100.5 69.5t-71.5 17.5q-21 -2 -33 -2q-198 0 -287.5 -116t-89.5 -293q0 -149 40.5 -245t107.5 -157.5t177 -128.5 q-229 0 -328.5 133.5t-99.5 334.5zM680 1496q16 102 71 165.5t152 63.5q52 0 189 -68t204 -68q66 0 101 25.5t87 86.5q-20 -105 -72 -168t-150 -63q-57 0 -196 68t-198 68q-67 0 -101.5 -25.5t-86.5 -84.5z" />
<glyph unicode="&#xd2;" horiz-adv-x="1807" d="M67 451q0 185 56.5 385.5t246.5 362t552 161.5q411 0 624.5 -201.5t213.5 -588.5q0 -436 -235.5 -671t-620.5 -235q-408 0 -622.5 210.5t-214.5 576.5zM324 690q0 -437 165.5 -697t518.5 -260q277 0 386.5 169.5t109.5 428.5q0 241 -58 455.5t-210.5 359.5t-419.5 145 q-231 0 -361.5 -132.5t-130.5 -468.5zM773 1720l184 54q13 -62 22 -89t30 -66q13 -31 45 -79.5t65 -71.5q-8 -2 -26 -2q-70 0 -141 31.5t-102 70.5t-46.5 77t-30.5 75z" />
<glyph unicode="&#xd3;" horiz-adv-x="1807" d="M67 451q0 185 56.5 385.5t246.5 362t552 161.5q411 0 624.5 -201.5t213.5 -588.5q0 -436 -235.5 -671t-620.5 -235q-408 0 -622.5 210.5t-214.5 576.5zM324 690q0 -437 165.5 -697t518.5 -260q277 0 386.5 169.5t109.5 428.5q0 241 -58 455.5t-210.5 359.5t-419.5 145 q-231 0 -361.5 -132.5t-130.5 -468.5zM898 1478q34 23 63.5 68t46.5 83q16 29 29 67.5t23 87.5l184 -54q-20 -52 -33 -82.5t-44.5 -69t-102.5 -70.5t-140 -32q-18 0 -26 2z" />
<glyph unicode="&#xd4;" horiz-adv-x="1807" d="M67 451q0 185 56.5 385.5t246.5 362t552 161.5q411 0 624.5 -201.5t213.5 -588.5q0 -436 -235.5 -671t-620.5 -235q-408 0 -622.5 210.5t-214.5 576.5zM324 690q0 -437 165.5 -697t518.5 -260q277 0 386.5 169.5t109.5 428.5q0 241 -58 455.5t-210.5 359.5t-419.5 145 q-231 0 -361.5 -132.5t-130.5 -468.5zM600 1443q39 54 171 175.5t207 149.5l357 -308v-17h-93l-264 240h-20l-263 -240h-95z" />
<glyph unicode="&#xd5;" horiz-adv-x="1807" d="M67 451q0 185 56.5 385.5t246.5 362t552 161.5q411 0 624.5 -201.5t213.5 -588.5q0 -436 -235.5 -671t-620.5 -235q-408 0 -622.5 210.5t-214.5 576.5zM324 690q0 -437 165.5 -697t518.5 -260q277 0 386.5 169.5t109.5 428.5q0 241 -58 455.5t-210.5 359.5t-419.5 145 q-231 0 -361.5 -132.5t-130.5 -468.5zM552 1486q18 111 78.5 181.5t165.5 70.5q57 0 207 -74.5t226 -74.5q70 0 110.5 28t97.5 93q-23 -115 -80.5 -184t-165.5 -69q-74 0 -216.5 74.5t-215.5 74.5q-74 0 -113.5 -29t-93.5 -91z" />
<glyph unicode="&#xd6;" horiz-adv-x="1807" d="M67 451q0 185 56.5 385.5t246.5 362t552 161.5q411 0 624.5 -201.5t213.5 -588.5q0 -436 -235.5 -671t-620.5 -235q-408 0 -622.5 210.5t-214.5 576.5zM324 690q0 -437 165.5 -697t518.5 -260q277 0 386.5 169.5t109.5 428.5q0 241 -58 455.5t-210.5 359.5t-419.5 145 q-231 0 -361.5 -132.5t-130.5 -468.5zM682 1584q8 18 59.5 77.5t74.5 62.5q26 0 72 -38.5t75 -83.5l-134 -136q-49 49 -75.5 68t-71.5 50zM1027 1578q3 10 55 74t80 67q28 0 73 -38.5t74 -84.5l-134 -135q-43 43 -65 60t-83 57z" />
<glyph unicode="&#xd9;" horiz-adv-x="1889" d="M8 824q0 188 151 360.5t485 172.5h565q-211 -223 -291.5 -321.5t-125.5 -231t-45 -340.5q0 -292 119.5 -378t308.5 -86q126 0 235 74.5t109 181.5v979q0 59 -23 79t-80 43h394q54 0 97.5 -29.5t74.5 -82.5q-29 20 -58.5 39.5t-62.5 19.5q-34 0 -59.5 -29.5t-25.5 -73.5 v-1045q0 -66 43.5 -125.5t144.5 -97.5h-445v85q-3 -2 -102.5 -94.5t-199.5 -145t-231 -52.5q-277 0 -389 173t-112 445q0 305 101.5 498t218.5 293t199 169h-445q-203 0 -316.5 -133.5t-113.5 -330.5q0 -139 56 -252t175 -175q-161 16 -256.5 134t-95.5 277zM970 1733 l183 54q13 -62 22.5 -89t30.5 -66q13 -31 45 -79.5t65 -71.5q-8 -2 -27 -2q-70 0 -140.5 31.5t-101.5 70.5t-46.5 77t-30.5 75z" />
<glyph unicode="&#xda;" horiz-adv-x="1889" d="M8 824q0 188 151 360.5t485 172.5h565q-211 -223 -291.5 -321.5t-125.5 -231t-45 -340.5q0 -292 119.5 -378t308.5 -86q126 0 235 74.5t109 181.5v979q0 59 -23 79t-80 43h394q54 0 97.5 -30t74.5 -82q-29 20 -58.5 39.5t-62.5 19.5q-34 0 -59.5 -29.5t-25.5 -73.5v-1045 q0 -66 43.5 -125.5t144.5 -97.5h-445v85q-3 -2 -102.5 -94.5t-199.5 -145t-231 -52.5q-277 0 -389 173t-112 445q0 305 101.5 498t218.5 293t199 169h-445q-203 0 -316.5 -133.5t-113.5 -330.5q0 -139 56 -252t175 -175q-161 16 -256.5 134t-95.5 277zM1316 1481 q34 23 63.5 68t45.5 83q16 29 29.5 67.5t23.5 87.5l183 -54q-20 -52 -33 -82.5t-44 -69t-102 -70.5t-140 -32q-18 0 -26 2z" />
<glyph unicode="&#xdb;" horiz-adv-x="1889" d="M8 824q0 188 151 360.5t485 172.5h565q-211 -223 -291.5 -321.5t-125.5 -231t-45 -340.5q0 -292 119.5 -378t308.5 -86q126 0 235 74.5t109 181.5v979q0 59 -23 79t-80 43h394q54 0 97.5 -29.5t74.5 -82.5q-29 20 -58.5 39.5t-62.5 19.5q-34 0 -59.5 -29.5t-25.5 -73.5 v-1045q0 -66 43.5 -125.5t144.5 -97.5h-445v85q-3 -2 -102.5 -94.5t-199.5 -145t-231 -52.5q-277 0 -389 173t-112 445q0 305 101.5 498t218.5 293t199 169h-445q-203 0 -316.5 -133.5t-113.5 -330.5q0 -139 56 -252t175 -175q-161 16 -256.5 134t-95.5 277zM983 1473 q39 54 171.5 175t207.5 149l357 -308v-16h-94l-263 239h-20l-264 -239h-95z" />
<glyph unicode="&#xdc;" horiz-adv-x="1889" d="M8 824q0 188 151 360.5t485 172.5h565q-211 -223 -291.5 -321.5t-125.5 -231t-45 -340.5q0 -292 119.5 -378t308.5 -86q126 0 235 74.5t109 181.5v979q0 59 -23 79t-80 43h394q54 0 97.5 -29.5t74.5 -82.5q-29 20 -58.5 39.5t-62.5 19.5q-34 0 -59.5 -29.5t-25.5 -73.5 v-1045q0 -66 43.5 -125.5t144.5 -97.5h-445v85q-3 -2 -102.5 -94.5t-199.5 -145t-231 -52.5q-277 0 -389 173t-112 445q0 305 101.5 498t218.5 293t199 169h-445q-203 0 -316.5 -133.5t-113.5 -330.5q0 -139 56 -252t175 -175q-161 16 -256.5 134t-95.5 277zM1050 1599 q8 18 60 77t75 62q26 0 72 -38.5t75 -82.5l-134 -136q-49 49 -75.5 68t-72.5 50zM1396 1593q3 10 54.5 73.5t79.5 66.5q28 0 73 -38.5t75 -83.5l-135 -135q-43 43 -64.5 60t-82.5 57z" />
<glyph unicode="&#xe0;" horiz-adv-x="945" d="M46 292q0 300 106.5 401.5t306.5 181.5h326v-755q11 -3 41.5 -11.5t35.5 -8.5q7 0 22 12.5t38 25.5q-52 -52 -104 -105q-36 -33 -102 -33q-82 0 -105 85q-16 85 -33 172q-136 -136 -205.5 -196.5t-154.5 -60.5q-80 0 -126 74.5t-46 217.5zM236 446q0 -90 28 -139.5 t126 -49.5q57 0 99.5 26.5t88.5 78.5v444h-119q-118 -70 -170.5 -149.5t-52.5 -210.5zM439 1209l167 49q10 -49 19 -75t29.5 -69.5t48.5 -80.5t51 -53q-8 -2 -27 -2q-61 0 -124.5 28.5t-92 64t-43.5 70t-28 68.5z" />
<glyph unicode="&#xe1;" horiz-adv-x="945" d="M46 292q0 300 106.5 401.5t306.5 181.5h326v-755q11 -3 41.5 -11.5t35.5 -8.5q7 0 22 12.5t38 25.5q-52 -52 -104 -105q-36 -33 -102 -33q-82 0 -105 85q-16 85 -33 172q-136 -136 -205.5 -196.5t-154.5 -60.5q-80 0 -126 74.5t-46 217.5zM236 446q0 -90 28 -139.5 t126 -49.5q57 0 99.5 26.5t88.5 78.5v444h-119q-118 -70 -170.5 -149.5t-52.5 -210.5zM470 968q29 20 55.5 60t41.5 70.5t28.5 68t22.5 80.5l167 -49q-20 -49 -31.5 -76.5t-40 -62.5t-92.5 -63.5t-126 -28.5q-16 0 -25 1z" />
<glyph unicode="&#xe2;" horiz-adv-x="945" d="M46 292q0 300 106.5 401.5t306.5 181.5h326v-755q11 -3 41.5 -11.5t35.5 -8.5q7 0 22 12.5t38 25.5q-52 -52 -104 -105q-36 -33 -102 -33q-82 0 -105 85q-16 85 -33 172q-136 -136 -205.5 -196.5t-154.5 -60.5q-80 0 -126 74.5t-46 217.5zM193 1001q36 56 155.5 176 t188.5 148l325 -308v-16h-85l-240 239h-18l-239 -239h-87zM236 446q0 -90 28 -139.5t126 -49.5q57 0 99.5 26.5t88.5 78.5v444h-119q-118 -70 -170.5 -149.5t-52.5 -210.5z" />
<glyph unicode="&#xe3;" horiz-adv-x="945" d="M46 292q0 300 106.5 401.5t306.5 181.5h326v-755q11 -3 41.5 -11.5t35.5 -8.5q7 0 22 12.5t38 25.5q-52 -52 -104 -105q-36 -33 -102 -33q-82 0 -105 85q-16 85 -33 172q-136 -136 -205.5 -196.5t-154.5 -60.5q-80 0 -126 74.5t-46 217.5zM64 1001q16 102 71 165.5 t152 63.5q52 0 189 -68t204 -68q66 0 101 25.5t87 86.5q-20 -105 -72 -168t-150 -63q-57 0 -196 68t-198 68q-67 0 -101.5 -25.5t-86.5 -84.5zM236 446q0 -90 28 -139.5t126 -49.5q57 0 99.5 26.5t88.5 78.5v444h-119q-118 -70 -170.5 -149.5t-52.5 -210.5z" />
<glyph unicode="&#xe4;" horiz-adv-x="945" d="M46 292q0 300 106.5 401.5t306.5 181.5h326v-755q11 -3 41.5 -11.5t35.5 -8.5q7 0 22 12.5t38 25.5q-52 -52 -104 -105q-36 -33 -102 -33q-82 0 -105 85q-16 85 -33 172q-136 -136 -205.5 -196.5t-154.5 -60.5q-80 0 -126 74.5t-46 217.5zM211 1072q7 15 55 69.5t68 57.5 q25 0 66.5 -35t68.5 -76l-123 -123q-38 38 -64 58.5t-71 48.5zM236 446q0 -90 28 -139.5t126 -49.5q57 0 99.5 26.5t88.5 78.5v444h-119q-118 -70 -170.5 -149.5t-52.5 -210.5zM526 1067q7 15 55 69.5t68 57.5q25 0 66.5 -35t67.5 -76l-123 -123q-38 38 -64 58.5t-70 48.5z " />
<glyph unicode="&#xe5;" horiz-adv-x="945" d="M46 292q0 300 106.5 401.5t306.5 181.5h326v-755q11 -3 41.5 -11.5t35.5 -8.5q7 0 22 12.5t38 25.5q-52 -52 -104 -105q-36 -33 -102 -33q-82 0 -105 85q-16 85 -33 172q-136 -136 -205.5 -196.5t-154.5 -60.5q-80 0 -126 74.5t-46 217.5zM236 446q0 -90 28 -139.5 t126 -49.5q57 0 99.5 26.5t88.5 78.5v444h-119q-118 -70 -170.5 -149.5t-52.5 -210.5zM428 1163q0 88 45 127.5t132 39.5q93 0 131.5 -45.5t38.5 -121.5q0 -98 -47.5 -138t-129.5 -40q-90 0 -130 45.5t-40 132.5zM467 1163q0 -59 27 -98t111 -39q66 0 98.5 29.5t32.5 101.5 q0 66 -28 103.5t-103 37.5q-64 0 -101 -30t-37 -105z" />
<glyph unicode="&#xe8;" horiz-adv-x="847" d="M61 360q0 242 126 378.5t337 136.5q80 0 136 -27t140 -111l-499 -498q41 -69 97 -87.5t126 -18.5q59 0 126.5 36t124.5 73q-157 -242 -405 -242q-205 0 -257 102.5t-52 257.5zM246 483q0 -44 11 -90t36 -85q105 105 168 175.5t63 116.5q0 41 -32.5 97.5t-83.5 56.5 q-64 0 -113 -81.5t-49 -189.5zM395 1201l167 49q10 -49 19 -75t29.5 -69.5t48 -80.5t50.5 -53q-8 -2 -26 -2q-61 0 -124.5 28.5t-92.5 64t-43.5 70t-27.5 68.5z" />
<glyph unicode="&#xe9;" horiz-adv-x="847" d="M61 360q0 242 126 378.5t337 136.5q80 0 136 -27t140 -111l-499 -498q41 -69 97 -87.5t126 -18.5q59 0 126.5 36t124.5 73q-157 -242 -405 -242q-205 0 -257 102.5t-52 257.5zM246 483q0 -44 11 -90t36 -85q105 105 168 175.5t63 116.5q0 41 -32.5 97.5t-83.5 56.5 q-64 0 -113 -81.5t-49 -189.5zM429 981q29 20 55.5 60t41.5 70.5t29 68t22 80.5l167 -49q-20 -49 -31.5 -76t-40 -62.5t-92.5 -64t-126 -28.5q-16 0 -25 1z" />
<glyph unicode="&#xea;" horiz-adv-x="847" d="M61 360q0 242 126 378.5t337 136.5q80 0 136 -27t140 -111l-499 -498q41 -69 97 -87.5t126 -18.5q59 0 126.5 36t124.5 73q-157 -242 -405 -242q-205 0 -257 102.5t-52 257.5zM141 936q36 56 155.5 176t188.5 148l324 -308v-16h-85l-239 239h-18l-239 -239h-87zM246 483 q0 -44 11 -90t36 -85q105 105 168 175.5t63 116.5q0 41 -32.5 97.5t-83.5 56.5q-64 0 -113 -81.5t-49 -189.5z" />
<glyph unicode="&#xeb;" horiz-adv-x="847" d="M61 360q0 242 126 378.5t337 136.5q80 0 136 -27t140 -111l-499 -498q41 -69 97 -87.5t126 -18.5q59 0 126.5 36t124.5 73q-157 -242 -405 -242q-205 0 -257 102.5t-52 257.5zM208 1068q7 15 55 70t68 58q25 0 66.5 -35t67.5 -76l-123 -123q-38 38 -64 58t-70 48z M246 483q0 -44 11 -90t36 -85q105 105 168 175.5t63 116.5q0 41 -32.5 97.5t-83.5 56.5q-64 0 -113 -81.5t-49 -189.5zM523 1063q7 15 55 70t68 58q25 0 66.5 -35t67.5 -76l-123 -123q-38 38 -64 58t-70 48z" />
<glyph unicode="&#xec;" horiz-adv-x="534" d="M15 1227l167 49q10 -49 19 -75t29.5 -69.5t48 -80.5t50.5 -53q-8 -2 -26 -2q-61 0 -124.5 28.5t-92.5 64t-43.5 70t-27.5 68.5zM26 723q11 38 85 102.5t140 64.5q61 0 87 -50t26 -116v-559q7 -31 17.5 -44t24.5 -13q20 0 36.5 11.5t65.5 49.5q-51 -85 -101 -123.5 t-112 -38.5q-54 0 -87 45.5t-33 106.5v598q-7 7 -15.5 12.5t-26.5 5.5q-21 0 -46 -11.5t-61 -40.5z" />
<glyph unicode="&#xed;" horiz-adv-x="534" d="M26 723q11 38 85 102.5t140 64.5q61 0 87 -50t26 -116v-559q7 -31 17.5 -44t24.5 -13q20 0 36.5 11.5t65.5 49.5q-51 -85 -101 -123.5t-112 -38.5q-54 0 -87 45.5t-33 106.5v598q-7 7 -15.5 12.5t-26.5 5.5q-21 0 -46 -11.5t-61 -40.5zM141 1008q29 20 55.5 60t41 70 t28.5 68t22 80l167 -49q-20 -49 -31 -76t-39.5 -62.5t-92.5 -64t-127 -28.5q-16 0 -24 2z" />
<glyph unicode="&#xee;" horiz-adv-x="560" d="M-31 949q33 56 140.5 176t169.5 148l291 -308v-16h-77l-214 239h-17l-214 -239h-79zM26 723q11 38 85 102.5t140 64.5q61 0 87 -50t26 -116v-559q7 -31 17.5 -44t24.5 -13q20 0 36.5 11.5t65.5 49.5q-51 -85 -101 -123.5t-112 -38.5q-54 0 -87 45.5t-33 106.5v598 q-7 7 -15.5 12.5t-26.5 5.5q-21 0 -46 -11.5t-61 -40.5z" />
<glyph unicode="&#xef;" horiz-adv-x="534" d="M-28 1112q7 15 55 70t68 58q25 0 66.5 -35t67.5 -76l-123 -123q-38 38 -64 58.5t-70 47.5zM26 723q11 38 85 102.5t140 64.5q61 0 87 -50t26 -116v-559q7 -31 17.5 -44t24.5 -13q20 0 36.5 11.5t65.5 49.5q-51 -85 -101 -123.5t-112 -38.5q-54 0 -87 45.5t-33 106.5v598 q-7 7 -15.5 12.5t-26.5 5.5q-21 0 -46 -11.5t-61 -40.5zM287 1108q7 15 55 69.5t68 57.5q25 0 66.5 -35t67.5 -76l-123 -123q-38 38 -64 58.5t-70 48.5z" />
<glyph unicode="&#xf1;" horiz-adv-x="914" d="M-62 672q62 69 132 137t118 68q52 0 69.5 -102t17.5 -213v-20.5v-7.5q79 144 179.5 243.5t177.5 99.5q54 0 87 -51t33 -103v-600q5 -7 11.5 -9.5t19.5 -2.5q21 0 46 11.5t64 44.5q-105 -164 -208 -164q-51 0 -85.5 41t-34.5 97v444q0 36 -22 69.5t-47 33.5 q-79 0 -132 -82.5t-92 -168.5l2 -314q-11 -43 -61.5 -75.5t-127.5 -44.5v685q-3 10 -10.5 20t-31.5 10q-16 0 -43.5 -11.5t-61.5 -34.5zM57 1004q13 90 64 148.5t136 58.5q49 0 171.5 -60.5t182.5 -60.5q44 0 80 17t89 82q-16 -95 -63 -151.5t-137 -56.5q-52 0 -176 61 t-178 61q-61 0 -92.5 -23t-76.5 -76z" />
<glyph unicode="&#xf2;" horiz-adv-x="922" d="M54 416q0 185 134.5 323t311.5 138q169 0 264 -115.5t95 -294.5q0 -188 -135.5 -325t-308.5 -137q-165 0 -263 114.5t-98 296.5zM242 536q0 -138 53.5 -283t186.5 -145q85 0 136.5 63t51.5 176q0 162 -55.5 295t-183.5 133q-84 0 -136.5 -65.5t-52.5 -173.5zM303 1214 l167 49q10 -49 19 -75t29.5 -69.5t48.5 -80.5t51 -53q-8 -2 -27 -2q-61 0 -124.5 28.5t-92 64t-43.5 70t-28 68.5z" />
<glyph unicode="&#xf3;" horiz-adv-x="922" d="M54 416q0 185 134.5 323t311.5 138q169 0 264 -115.5t95 -294.5q0 -188 -135.5 -325t-308.5 -137q-165 0 -263 114.5t-98 296.5zM242 536q0 -138 53.5 -283t186.5 -145q85 0 136.5 63t51.5 176q0 162 -55.5 295t-183.5 133q-84 0 -136.5 -65.5t-52.5 -173.5zM416 981 q29 20 55.5 60t41.5 70.5t28.5 68t22.5 80.5l167 -49q-20 -49 -31.5 -76t-40 -62.5t-92.5 -64t-126 -28.5q-16 0 -25 1z" />
<glyph unicode="&#xf4;" horiz-adv-x="922" d="M54 416q0 185 134.5 323t311.5 138q169 0 264 -115.5t95 -294.5q0 -188 -135.5 -325t-308.5 -137q-165 0 -263 114.5t-98 296.5zM180 922q36 56 155.5 176.5t188.5 148.5l325 -308v-17h-86l-239 240h-18l-239 -240h-87zM242 536q0 -138 53.5 -283t186.5 -145 q85 0 136.5 63t51.5 176q0 162 -55.5 295t-183.5 133q-84 0 -136.5 -65.5t-52.5 -173.5z" />
<glyph unicode="&#xf5;" horiz-adv-x="922" d="M54 416q0 185 134.5 323t311.5 138q169 0 264 -115.5t95 -294.5q0 -188 -135.5 -325t-308.5 -137q-165 0 -263 114.5t-98 296.5zM102 990q13 90 63.5 148t135.5 58q49 0 171.5 -60.5t182.5 -60.5q44 0 80.5 17t88.5 83q-16 -95 -63 -151.5t-137 -56.5q-52 0 -176 60.5 t-178 60.5q-61 0 -92.5 -23t-75.5 -75zM242 536q0 -138 53.5 -283t186.5 -145q85 0 136.5 63t51.5 176q0 162 -55.5 295t-183.5 133q-84 0 -136.5 -65.5t-52.5 -173.5z" />
<glyph unicode="&#xf6;" horiz-adv-x="922" d="M54 416q0 185 134.5 323t311.5 138q169 0 264 -115.5t95 -294.5q0 -188 -135.5 -325t-308.5 -137q-165 0 -263 114.5t-98 296.5zM223 1053q7 15 55 70t68 58q25 0 66.5 -35t67.5 -76l-123 -123q-38 38 -64 58.5t-70 47.5zM242 536q0 -138 53.5 -283t186.5 -145 q85 0 136.5 63t51.5 176q0 162 -55.5 295t-183.5 133q-84 0 -136.5 -65.5t-52.5 -173.5zM537 1049q7 15 55 69.5t68 57.5q25 0 66.5 -35t68.5 -76l-123 -123q-38 38 -64 58.5t-71 48.5z" />
<glyph unicode="&#xf7;" horiz-adv-x="1422" d="M247 449q23 88 124 176t201 88h555q18 0 60.5 19.5t70.5 37.5q-43 -108 -142 -186.5t-189 -78.5h-555q-36 0 -57.5 -13.5t-67.5 -42.5zM596 267q7 15 55 70t68 58q25 0 66.5 -35.5t68.5 -76.5l-123 -122q-38 38 -64 58t-71 48zM680 921q7 15 55 70t68 58q25 0 66.5 -35.5 t67.5 -76.5l-123 -123q-38 38 -64 58.5t-70 48.5z" />
<glyph unicode="&#xf9;" horiz-adv-x="1004" d="M-29 742q46 72 102 104t120 32q67 0 83.5 -50.5t20.5 -103.5v-377q0 -59 45 -105.5t91 -46.5q29 0 91.5 64.5t62.5 122.5v342q0 64 53 109t133 45v-717q5 -8 15 -15.5t33 -7.5q31 0 69.5 20.5t97.5 75.5q-48 -74 -125 -150.5t-157 -76.5q-77 0 -107 55.5t-30 148.5 q-57 -69 -125.5 -136.5t-130.5 -67.5q-95 0 -150 77t-55 144v531q0 5 -1.5 14.5t-24.5 9.5q-18 0 -43.5 -9t-67.5 -32zM277 1149l167 49q10 -49 19 -75.5t29.5 -70t48 -80.5t50.5 -53q-8 -2 -26 -1q-61 0 -124.5 28.5t-92.5 63.5t-43.5 69.5t-27.5 69.5z" />
<glyph unicode="&#xfa;" horiz-adv-x="1004" d="M-29 742q46 72 102 104t120 32q67 0 83.5 -50.5t20.5 -103.5v-377q0 -59 45 -105.5t91 -46.5q29 0 91.5 64.5t62.5 122.5v342q0 64 53 109t133 45v-717q5 -8 15 -15.5t33 -7.5q31 0 69.5 20.5t97.5 75.5q-48 -74 -125 -150.5t-157 -76.5q-77 0 -107 55.5t-30 148.5 q-57 -69 -125.5 -136.5t-130.5 -67.5q-95 0 -150 77t-55 144v531q0 5 -1.5 14.5t-24.5 9.5q-18 0 -43.5 -9t-67.5 -32zM390 995q29 20 55.5 59.5t41 70t28.5 68t22 80.5l168 -49q-20 -49 -31.5 -76t-40 -62.5t-92.5 -64t-126 -28.5q-16 0 -25 2z" />
<glyph unicode="&#xfb;" horiz-adv-x="1004" d="M-29 742q46 72 102 104t120 32q67 0 83.5 -50.5t20.5 -103.5v-377q0 -59 45 -105.5t91 -46.5q29 0 91.5 64.5t62.5 122.5v342q0 64 53 109t133 45v-717q5 -8 15 -15.5t33 -7.5q31 0 69.5 20.5t97.5 75.5q-48 -74 -125 -150.5t-157 -76.5q-77 0 -107 55.5t-30 148.5 q-57 -69 -125.5 -136.5t-130.5 -67.5q-95 0 -150 77t-55 144v531q0 5 -1.5 14.5t-24.5 9.5q-18 0 -43.5 -9t-67.5 -32zM102 1001q36 56 155.5 176t188.5 148l324 -308v-16h-85l-239 239h-18l-240 -239h-86z" />
<glyph unicode="&#xfc;" horiz-adv-x="1004" d="M-29 742q46 72 102 104t120 32q67 0 83.5 -50.5t20.5 -103.5v-377q0 -59 45 -105.5t91 -46.5q29 0 91.5 64.5t62.5 122.5v342q0 64 53 109t133 45v-717q5 -8 15 -15.5t33 -7.5q31 0 69.5 20.5t97.5 75.5q-48 -74 -125 -150.5t-157 -76.5q-77 0 -107 55.5t-30 148.5 q-57 -69 -125.5 -136.5t-130.5 -67.5q-95 0 -150 77t-55 144v531q0 5 -1.5 14.5t-24.5 9.5q-18 0 -43.5 -9t-67.5 -32zM193 1127q7 15 55 70t68 58q25 0 66.5 -35t68.5 -76l-123 -123q-38 38 -64 58t-71 48zM508 1122q7 15 55 70t68 58q25 0 66.5 -35t67.5 -76l-123 -123 q-38 38 -64 58t-70 48z" />
<glyph unicode="&#xfd;" horiz-adv-x="0" />
<glyph unicode="&#xff;" horiz-adv-x="956" d="M-36 614q48 75 151 175.5t152 100.5q66 0 124 -94.5t151.5 -292t140.5 -264.5q28 51 55 116.5t27 142.5q0 82 -42.5 146.5t-119.5 114.5q23 41 78.5 101.5t93.5 60.5q21 0 93 -74t72 -195q0 -84 -67 -189.5t-123 -188.5q-51 -95 -108 -207.5t-100.5 -224.5t-43.5 -186 q0 -100 61.5 -182t158.5 -82q82 0 128.5 64t77.5 131q0 -157 -94 -215t-216 -58q-159 0 -233.5 52t-74.5 187q0 85 54.5 186.5t193.5 283.5q-38 82 -98.5 216.5t-143.5 284t-112.5 156t-40.5 6.5q-38 0 -84.5 -16t-110.5 -56zM208 1142q7 15 55 70t68 58q25 0 66.5 -35.5 t67.5 -76.5l-123 -123q-38 38 -64 58.5t-70 48.5zM523 1137q7 15 55 70t68 58q25 0 66.5 -35.5t67.5 -76.5l-123 -122q-38 38 -64 58t-70 48z" />
<glyph unicode="&#x178;" horiz-adv-x="858" d="M-159 1219h652q-52 -20 -77.5 -47t-25.5 -56q88 -102 180 -214t128 -181q92 195 160.5 312t202 220.5t323.5 103.5q192 0 302.5 -126.5t110.5 -319.5q-144 229 -211 276.5t-218 47.5q-210 0 -343.5 -163t-206.5 -382q-26 -97 -51 -192v-395q0 -69 57 -138.5t166 -100.5 h-600q88 38 138 88.5t50 134.5v445q0 34 -84 177t-250.5 293t-402.5 217zM446 1525q8 18 59.5 77.5t74.5 62.5q26 0 72 -38.5t75 -83.5l-134 -136q-49 49 -75 68t-72 50zM791 1519q3 10 55 74t80 67q28 0 73 -38.5t74 -84.5l-134 -135q-43 43 -65 60t-83 57z" />
<glyph unicode="&#x2c6;" horiz-adv-x="786" d="M2 950q36 56 155.5 176.5t188.5 148.5l324 -308v-17h-85l-239 239h-18l-240 -239h-86z" />
<glyph unicode="&#x2dc;" horiz-adv-x="933" d="M152 1117q11 80 57.5 133t123.5 53q43 0 153 -55t164 -55q52 0 83.5 21t69.5 69q-15 -85 -57.5 -136t-122.5 -51q-48 0 -159.5 55t-158.5 55q-56 0 -82 -19.5t-71 -69.5z" />
<glyph unicode="&#x2000;" horiz-adv-x="898" />
<glyph unicode="&#x2001;" horiz-adv-x="1797" />
<glyph unicode="&#x2002;" horiz-adv-x="898" />
<glyph unicode="&#x2003;" horiz-adv-x="1797" />
<glyph unicode="&#x2004;" horiz-adv-x="599" />
<glyph unicode="&#x2005;" horiz-adv-x="449" />
<glyph unicode="&#x2006;" horiz-adv-x="299" />
<glyph unicode="&#x2007;" horiz-adv-x="299" />
<glyph unicode="&#x2008;" horiz-adv-x="224" />
<glyph unicode="&#x2009;" horiz-adv-x="359" />
<glyph unicode="&#x200a;" horiz-adv-x="99" />
<glyph unicode="&#x2010;" horiz-adv-x="1199" d="M162 360q51 157 179 196t358 46t312 50q-79 -165 -205 -201t-341 -38t-303 -53z" />
<glyph unicode="&#x2011;" horiz-adv-x="1199" d="M162 360q51 157 179 196t358 46t312 50q-79 -165 -205 -201t-341 -38t-303 -53z" />
<glyph unicode="&#x2012;" horiz-adv-x="1199" d="M162 360q51 157 179 196t358 46t312 50q-79 -165 -205 -201t-341 -38t-303 -53z" />
<glyph unicode="&#x2013;" horiz-adv-x="825" d="M84 362q70 156 141.5 198.5t184.5 42.5q18 0 37.5 -1t40.5 -1q87 0 141 14t107 39q-69 -159 -147.5 -199t-211.5 -40q-100 0 -159 -7.5t-134 -45.5z" />
<glyph unicode="&#x2014;" horiz-adv-x="1422" d="M162 360q26 80 138.5 160t222.5 80h617q20 0 68.5 18.5t77.5 33.5q-48 -98 -157 -169.5t-211 -71.5h-618q-39 0 -65.5 -12t-72.5 -39z" />
<glyph unicode="&#x2018;" horiz-adv-x="288" d="M8 1029q0 52 32 114.5t130 124.5q-21 -38 -31.5 -60t-10.5 -41q0 -52 36 -95t101 -94l-154 -154q-52 43 -77.5 95.5t-25.5 109.5z" />
<glyph unicode="&#x2019;" horiz-adv-x="255" d="M-25 1203l154 154q52 -43 78 -95.5t26 -109.5q0 -52 -32 -114.5t-131 -124.5q21 39 32 60.5t11 40.5q0 52 -36 95t-102 94z" />
<glyph unicode="&#x201a;" horiz-adv-x="458" d="M108 52l154 154q52 -43 77.5 -95t25.5 -109q0 -52 -32 -114.5t-130 -125.5q21 38 32 60t11 42q0 52 -36 95t-102 93z" />
<glyph unicode="&#x201c;" horiz-adv-x="609" d="M8 1029q0 52 32 114.5t130 124.5q-21 -38 -31.5 -60t-10.5 -41q0 -52 36 -95t101 -94l-154 -154q-52 43 -77.5 95.5t-25.5 109.5zM339 1026q0 52 32 114.5t130 124.5q-21 -38 -31.5 -60t-10.5 -42q0 -52 36 -94.5t101 -93.5l-154 -154q-52 43 -77.5 95t-25.5 110z" />
<glyph unicode="&#x201d;" horiz-adv-x="616" d="M10 1129l154 154q52 -43 77.5 -95.5t25.5 -109.5q0 -52 -32 -114.5t-130 -124.5q21 39 31.5 60.5t10.5 40.5q0 52 -36 95t-101 94zM341 1126l154 154q52 -43 77.5 -95.5t25.5 -109.5q0 -52 -32 -114.5t-130 -124.5q21 39 31.5 60.5t10.5 40.5q0 52 -36 95t-101 94z" />
<glyph unicode="&#x201e;" horiz-adv-x="745" d="M84 82l154 154q52 -43 77.5 -95.5t25.5 -109.5q0 -52 -32 -114.5t-130 -124.5q21 38 31.5 60t10.5 42q0 52 -36 94.5t-101 93.5zM415 79l154 154q52 -43 77.5 -95.5t25.5 -109.5q0 -52 -32 -114.5t-130 -124.5q21 38 31.5 60t10.5 41q0 52 -36 95t-101 94z" />
<glyph unicode="&#x2022;" horiz-adv-x="835" d="M75 551q0 144 97.5 235t246.5 91q144 0 234.5 -100t90.5 -243q0 -144 -96 -235t-247 -91q-108 0 -217 77t-109 266z" />
<glyph unicode="&#x2026;" horiz-adv-x="1559" d="M110 15q18 33 79.5 106.5t92.5 73.5q13 0 69.5 -54t117.5 -100l-171 -172q-67 56 -111 92t-77 54zM588 15q18 33 79.5 106.5t92.5 73.5q15 0 70 -53.5t117 -100.5l-170 -172q-67 56 -111.5 92t-77.5 54zM1067 15q18 33 79.5 106.5t92.5 73.5q15 0 69.5 -53.5 t116.5 -100.5l-170 -172q-31 21 -93.5 73.5t-94.5 72.5z" />
<glyph unicode="&#x202f;" horiz-adv-x="359" />
<glyph unicode="&#x2039;" horiz-adv-x="671" d="M126 488v15l293 293h138l-293 -293v-15l277 -293h-122z" />
<glyph unicode="&#x203a;" horiz-adv-x="671" d="M125 796h137l293 -293v-15l-293 -293h-121l277 293v15z" />
<glyph unicode="&#x205f;" horiz-adv-x="449" />
<glyph unicode="&#x2122;" horiz-adv-x="1209" d="M75 1185v34h394v-34h-136v-426h-120v426h-138zM554 759v460h119l172 -170q111 116 141 145.5t49 29.5q7 0 24 -2.5t26 -2.5v-460h-120v324h-34l-138 -138l-136 138h-34v-324h-69z" />
<glyph unicode="&#x25fc;" horiz-adv-x="876" d="M0 0v877h877v-877h-877z" />
</font>
</defs>
</svg>
